<?xml version="1.0" encoding="UTF-8"?>
<svg id="Capa_1" xmlns="http://www.w3.org/2000/svg" viewBox="0 0 911.49 755.6">
  <defs>
    <style>
      .cls-1 {
        fill: #d01d17;
      }

      .cls-2 {
        fill: #f9b500;
      }

      .cls-3 {
        fill: #2b5ba6;
      }
    </style>
  </defs>
  <g>
    <path class="cls-3" d="M80.03,546.16h5.26c9.69,0,13.48-3.37,13.48-12.84v-111.17c0-9.26-3.79-12.84-13.48-12.84h-5.26v-3.58h110.12l2.11,53.06h-3.37c-3.79-29.69-13.05-49.48-39.58-49.48h-13.48c-9.69,0-13.26,3.16-13.26,12.63v51.16h10.11c19.37,0,25.27-12.84,25.48-30.74h3.37v66.75h-3.37c-.21-17.9-5.9-32.22-25.48-32.22h-10.11v56.64c0,9.69,3.58,12.63,13.26,12.63h16.84c27.16,0,35.58-23.58,40.22-53.9h3.16l-3.58,57.48h-112.44v-3.58Z"/>
    <path class="cls-3" d="M216.88,546.16h5.26c9.69,0,13.48-2.53,13.48-12.63v-111.59c0-10.11-3.79-12.63-13.48-12.63h-5.26v-3.58h60.64c33.06,0,53.48,13.48,53.48,39.37,0,27.58-24,41.69-56.64,41.69h-14.95v46.74c0,10.11,3.58,12.63,13.26,12.63h8.84v3.58h-64.64v-3.58ZM304.68,445.94c0-20-5.05-36.64-27.79-36.64h-4.21c-9.69,0-13.26,2.53-13.26,12.63v61.06h15.58c25.06,0,29.69-18.11,29.69-37.06Z"/>
    <path class="cls-3" d="M425.54,516.26c-3.79-29.06-9.26-34.11-26.95-34.11h-9.9v51.37c0,9.9,3.58,12.63,13.26,12.63h6.74v3.58h-62.53v-3.58h5.26c9.9,0,13.48-2.74,13.48-12.63v-111.59c0-9.9-3.58-12.63-13.48-12.63h-5.26v-3.58h59.59c32.22,0,54.11,10.32,54.11,36.64,0,22.74-21.27,34.95-44.43,38.11v.42c13.05,4,22.32,14.11,29.06,29.06,8.21,18.11,12.42,26.74,19.16,26.74,4.63,0,7.79-3.37,8-17.48h3.37c.84,20.63-7.58,32.43-21.9,32.43-12.21,0-23.58-5.05-27.58-35.37ZM433.96,443.2c0-20.21-6.74-33.9-28.21-33.9h-3.79c-9.69,0-13.26,2.32-13.26,12.42v56.64h14.11c24.42,0,31.16-15.16,31.16-35.16Z"/>
    <path class="cls-3" d="M572.51,545.11c-6.74-2.95-10.53-5.68-14.32-5.68-3.37,0-6.95,3.16-9.05,12.21h-2.95l-1.47-56.01h3.37c7.16,37.9,33.9,52.64,54.95,52.64,16.84,0,27.58-10.74,27.58-26.32,0-17.27-11.79-24.63-36.21-31.79-28.43-8.21-48.43-17.27-48.43-45.9,0-24.42,17.48-40.64,40.85-40.64,11.16,0,21.27,3.79,29.27,9.05,2.74,1.68,5.47,3.16,8.21,3.16,3.37,0,6.32-2.74,8.84-12.21h2.95l1.47,56.01h-3.37c-7.79-37.69-26.95-52.43-47.58-52.43-16.21,0-26.74,10.74-26.74,24.85,0,14.95,5.68,23.16,36.22,31.79,32.64,9.26,48.22,20.42,48.22,46.53s-19.37,41.69-42.11,41.69c-13.48,0-22.95-4-29.69-6.95Z"/>
    <path class="cls-3" d="M669.79,538.37c0-7.37,5.9-13.27,13.26-13.27s13.06,5.9,13.06,13.27-5.9,13.26-13.06,13.26-13.26-6.11-13.26-13.26Z"/>
    <path class="cls-3" d="M736.32,524.27l46.74-122.12h6.32l49.27,129.07c4.21,10.95,8.84,14.32,18.95,14.95v3.58h-61.69v-3.58h6.11c8,0,11.58-3.79,11.79-8,0-3.79-.84-7.58-3.58-14.74l-8-21.69h-51.8l-5.47,14.53c-2.53,6.74-4.42,13.69-4.42,19.79s4,10.11,12,10.11h3.79v3.58h-40.64v-3.58c10.95-1.05,15.37-7.79,20.63-21.9ZM800.75,497.74l-24.63-66.32-24.21,66.32h48.85Z"/>
  </g>
  <g>
    <path class="cls-3" d="M53.48,642.21h1.68c4.26,0,6.17-1.91,7.29-6.84l13.24-59.35c1.12-4.82-.11-6.96-4.26-6.96h-1.79l.45-1.79h46l-5.39,28.27h-1.91c2.24-16.61.9-26.37-11.33-26.37h-3.03c-4.26,0-6.28,1.79-7.41,6.73l-6.06,27.26h2.13c9.09,0,12.23-6.28,14.7-16.27h1.8l-7.97,35.57h-1.79c2.13-10.88,1.12-17.28-7.18-17.28h-2.13l-6.73,30.18c-1.12,4.94.22,6.73,4.38,6.73h3.93c12.45,0,19.07-12.57,24.35-28.72h2.02l-7.63,30.63h-47.8l.45-1.79Z"/>
    <path class="cls-3" d="M118.44,632.44c0-3.59,1.23-8.98,2.81-14.59l3.7-13.01c.45-1.57.67-2.8.67-3.7,0-2.13-1.12-2.92-3.93-2.92h-2.92l.45-1.57,16.72-.9c0,3.48-.9,8.42-2.58,14.25l-2.02,7.52c-1.46,5.39-3.37,11.11-3.48,15.6-.22,5.38,1.68,7.74,4.94,7.74,7.41.11,16.94-18.74,17.39-29.51.22-4.04-1.91-5.16-3.48-6.96-1.23-1.68-2.13-3.14-2.13-5.27,0-2.47,1.68-4.15,3.81-4.15,3.37,0,5.27,4.38,5.05,10.55-.67,17.73-12.23,39.38-24.57,39.38-6.73,0-10.55-4.15-10.43-12.45Z"/>
    <path class="cls-3" d="M160.06,626.61c.9-17.28,12.9-31.75,25.92-31.75,5.95,0,9.76,4.04,9.42,9.99-.45,10.66-12.45,15.71-24.91,18.62-.22,1.01-.45,3.48-.56,5.05-.34,8.19,1.91,12.68,6.4,12.68s9.2-3.59,13.58-10.77l1.35,1.12c-4.94,8.19-10.66,13.35-18.4,13.35s-13.35-6.96-12.79-18.29ZM187.55,603.61c.22-5.05-1.35-6.96-3.48-6.96-4.82,0-10.88,11.11-13.35,24.91,11.44-3.03,16.38-8.64,16.83-17.95Z"/>
    <path class="cls-3" d="M222,636.93c0-2.36.67-5.39,1.46-7.97l4.49-13.8c1.12-3.25,2.81-8.53,2.92-11.67,0-1.91-.67-3.14-2.36-3.14-5.05,0-13.35,16.04-16.04,26.7l-4.26,16.94h-9.99l10.43-39.04c.34-1.46.56-2.92.56-3.81,0-1.91-1.01-2.92-4.15-2.92h-2.81l.45-1.57,16.49-1.01c0,4.38-1.01,8.75-2.69,14.36l-1.23,4.04.34.11c4.94-11.22,10.32-18.62,17.28-18.62,4.82,0,7.52,3.48,7.52,8.98,0,3.37-1.68,8.42-2.47,10.77l-4.6,13.8c-.67,2.13-1.8,5.95-1.8,7.97s.56,2.8,1.91,2.8c2.02,0,4.94-3.14,8.19-10.43l1.35.9c-3.48,8.42-7.63,14.36-13.91,14.36-4.71,0-7.07-2.8-7.07-7.74Z"/>
    <path class="cls-3" d="M251.5,635.36c0-2.24.56-5.27,1.01-7.29l6.96-29.62h-6.4l.22-1.35c7.85-1.01,14.47-4.26,19.86-20.08h1.68l-4.94,19.52h11.44l-.34,1.91h-11.56l-7.52,30.74c-.22,1.46-.9,4.15-.9,5.83.11,3.14,1.23,5.16,3.81,5.16,3.48,0,6.51-3.82,10.43-11.89l1.46.67c-4.82,10.77-9.09,15.71-15.93,15.71-6.17,0-9.2-3.7-9.31-9.31Z"/>
    <path class="cls-3" d="M284.15,625.49c.34-17.28,12.57-30.63,24.12-30.63,8.08,0,14.14,7.07,14.02,19.07-.22,17.28-12.57,30.97-24.01,30.97-8.3,0-14.36-7.18-14.14-19.41ZM312.76,605.41c.11-6.17-1.35-8.86-4.15-8.86-8.3,0-15.03,26.48-15.15,38.15-.11,5.39,1.23,8.42,4.6,8.42,8.08,0,14.36-24.8,14.7-37.7Z"/>
    <path class="cls-3" d="M327.34,633.23c.11-4.15,2.8-6.17,4.82-6.17,2.13,0,4.26,1.68,4.15,4.94-.22,4.26-3.81,4.38-3.81,6.28-.22,2.13,3.14,4.94,8.53,4.94s9.09-3.14,9.65-8.08c.56-5.16-2.47-8.19-8.08-11.78-5.5-3.59-9.09-6.73-8.64-13.91.45-8.53,7.29-14.59,15.82-14.59,7.85.11,12.57,5.16,12.45,9.76-.22,3.37-2.13,5.83-4.71,5.83-2.24,0-4.26-1.57-4.04-4.6.11-3.37,2.58-4.38,2.69-5.95,0-1.91-3.03-3.14-6.62-3.14-4.49-.11-8.3,2.8-8.75,7.52-.34,4.38,1.91,6.73,7.52,10.32,6.62,4.15,9.99,7.97,9.31,15.59-1.01,9.65-8.75,14.7-16.83,14.7-8.53,0-13.58-5.83-13.46-11.67Z"/>
    <path class="cls-3" d="M377.71,665.09h1.12c4.04,0,5.39-2.36,6.84-8.19l13.02-51.5c.34-1.35.56-2.92.56-4.04,0-2.24-1.35-3.14-4.26-3.14h-2.58l.45-1.68,16.38-1.01c.11,2.36-1.01,7.63-2.24,12.12l.22.11c3.37-7.18,7.85-12.34,13.58-12.34,4.82,0,10.21,4.71,10.21,15.6,0,19.63-12.12,33.66-21.65,33.66-6.28,0-8.86-5.83-8.42-10.43h-.22l-2.36,10.77-2.92,12.12c-1.35,5.83-1.12,7.97,3.03,7.97h2.58l-.45,1.8h-23.23l.34-1.8ZM421.25,606.64c.11-5.27-1.46-7.52-3.59-7.52-5.16,0-12.01,11.89-14.02,24.68-2.02,11.11-.67,17.95,4.26,17.95,6.73,0,13.01-19.52,13.35-35.12Z"/>
    <path class="cls-3" d="M447.61,601.37c0-2.24-1.35-3.14-4.15-3.14h-2.81l.45-1.57,16.49-1.01c0,4.49-.79,8.3-2.69,14.36l-1.46,4.49.34.11c5.39-12.12,9.87-19.41,15.6-19.41,3.59,0,5.95,3.03,5.95,7.18-.11,4.6-2.47,7.18-5.16,7.18s-4.49-2.13-4.38-5.27c0-2.02.9-3.25,1.01-3.82.11-.34,0-.79-.45-.79-4.15,0-12.23,15.26-15.71,28.5l-4.15,15.82h-9.87l10.55-39.49c.22-.79.45-2.24.45-3.14Z"/>
    <path class="cls-3" d="M475.99,625.49c.34-17.28,12.57-30.63,24.12-30.63,8.08,0,14.14,7.07,14.02,19.07-.22,17.28-12.57,30.97-24.01,30.97-8.3,0-14.36-7.18-14.14-19.41ZM504.6,605.41c.11-6.17-1.35-8.86-4.15-8.86-8.3,0-15.03,26.48-15.15,38.15-.11,5.39,1.23,8.42,4.6,8.42,8.08,0,14.36-24.8,14.7-37.7Z"/>
    <path class="cls-3" d="M521.43,627.84c.45-18.29,12.45-32.54,22.66-32.54,6.51,0,7.85,5.95,7.85,12.9h.34c.45-3.14,1.8-10.77,2.47-13.35l5.05-19.75c.34-1.57.67-3.03.67-3.93-.11-1.91-1.35-2.36-4.04-2.36h-2.58l.45-1.68,17.5-1.91-16.72,63.95c-.67,2.81-1.46,5.72-1.46,7.41,0,1.91.56,2.8,1.91,2.8,1.8,0,4.71-3.03,7.97-10.32l1.46.9c-3.48,8.53-8.19,14.47-13.91,14.47-4.26,0-6.06-2.58-6.17-6.73,0-1.79.22-4.15.67-5.39h-.22c-2.81,6.73-7.18,12.34-13.02,12.34s-11.22-5.16-10.88-16.83ZM546.68,624.25c1.91-5.39,3.25-11,3.37-15.82.22-7.29-1.57-10.43-4.82-10.43-5.16,0-9.87,10.55-12.34,22.33-1.01,4.94-1.68,9.2-1.68,12.9,0,4.6,1.01,7.85,3.93,7.85,4.15,0,8.42-7.52,11.56-16.83Z"/>
    <path class="cls-3" d="M572.14,635.81c0-3.48,1.35-7.85,2.24-10.88l5.95-19.52c.56-1.8.79-3.37.79-4.26.11-2.02-1.23-2.92-4.04-2.92h-3.25l.56-1.57,17.28-1.01c.11,3.48-.45,7.18-2.58,14.14l-4.94,15.26c-.79,2.81-2.69,8.53-2.69,11.56,0,2.13.79,3.14,2.24,3.14,4.82,0,13.02-13.46,16.27-26.48l4.04-16.49h9.98l-8.53,31.64c-.67,2.47-1.57,6.06-1.57,7.97,0,2.02.56,3.03,1.91,3.03,1.79,0,4.71-3.14,7.97-10.1l1.46.79c-3.59,8.41-8.53,14.36-14.14,14.36-4.49,0-6.28-3.37-6.28-7.29,0-1.68.45-4.38,1.12-6.73l1.12-3.93-.34-.11c-5.39,12-10.88,18.29-17.28,18.29-4.82,0-7.29-3.48-7.29-8.86Z"/>
    <path class="cls-3" d="M621.73,629.08c0-18.18,12.34-34.22,25.25-34.22,7.74,0,9.99,5.61,9.76,11.78-.22,4.6-3.03,6.96-5.38,6.96-2.58,0-4.83-1.91-4.6-5.39.11-3.37,2.47-5.61,5.05-5.61,1.23,0,2.02.45,2.02-.9,0-2.36-1.91-4.6-5.39-4.6-9.99,0-16.72,18.62-16.72,31.53,0,7.74,1.91,12.23,7.07,12.23,4.26,0,8.19-3.37,12.23-10.32l1.35,1.01c-4.94,9.2-9.99,13.35-17.17,13.35s-13.46-5.5-13.46-15.82Z"/>
    <path class="cls-3" d="M662.23,637.49c0-3.14.56-5.61,1.23-7.97l6.62-24.8c.45-1.57.67-2.8.67-3.81,0-1.79-1.12-2.69-3.93-2.69h-3.14l.45-1.57,17.17-1.12c0,3.48-.56,7.18-2.58,14.36l-5.27,19.41c-.56,2.13-1.35,5.5-1.35,7.29,0,2.24.56,3.03,1.91,3.03,2.13,0,5.05-3.59,8.08-10.43l1.46.9c-3.7,9.09-8.64,14.58-14.58,14.58-4.71,0-6.73-3.59-6.73-7.18ZM671.65,579.15c0-3.37,3.03-6.4,6.51-6.4s6.39,3.03,6.39,6.4c0,3.59-2.92,6.51-6.39,6.51s-6.51-2.92-6.51-6.51Z"/>
    <path class="cls-3" d="M690.5,625.49c.34-17.28,12.57-30.63,24.12-30.63,8.08,0,14.14,7.07,14.02,19.07-.22,17.28-12.57,30.97-24.01,30.97-8.3,0-14.36-7.18-14.14-19.41ZM719.11,605.41c.11-6.17-1.35-8.86-4.15-8.86-8.3,0-15.04,26.48-15.15,38.15-.11,5.39,1.23,8.42,4.6,8.42,8.08,0,14.36-24.8,14.7-37.7Z"/>
    <path class="cls-3" d="M757.93,636.93c0-2.36.67-5.39,1.46-7.97l4.49-13.8c1.12-3.25,2.8-8.53,2.92-11.67,0-1.91-.67-3.14-2.36-3.14-5.05,0-13.35,16.04-16.04,26.7l-4.26,16.94h-9.99l10.43-39.04c.34-1.46.56-2.92.56-3.81,0-1.91-1.01-2.92-4.15-2.92h-2.8l.45-1.57,16.49-1.01c0,4.38-1.01,8.75-2.69,14.36l-1.23,4.04.34.11c4.94-11.22,10.32-18.62,17.28-18.62,4.83,0,7.52,3.48,7.52,8.98,0,3.37-1.68,8.42-2.47,10.77l-4.6,13.8c-.67,2.13-1.79,5.95-1.79,7.97s.56,2.8,1.91,2.8c2.02,0,4.94-3.14,8.19-10.43l1.35.9c-3.48,8.42-7.63,14.36-13.91,14.36-4.71,0-7.07-2.8-7.07-7.74Z"/>
    <path class="cls-3" d="M785.64,626.61c.9-17.28,12.9-31.75,25.92-31.75,5.95,0,9.76,4.04,9.42,9.99-.45,10.66-12.45,15.71-24.91,18.62-.22,1.01-.45,3.48-.56,5.05-.34,8.19,1.91,12.68,6.4,12.68s9.2-3.59,13.58-10.77l1.35,1.12c-4.94,8.19-10.66,13.35-18.4,13.35s-13.35-6.96-12.79-18.29ZM813.13,603.61c.22-5.05-1.35-6.96-3.48-6.96-4.82,0-10.88,11.11-13.35,24.91,11.44-3.03,16.38-8.64,16.83-17.95Z"/>
    <path class="cls-3" d="M823.56,633.23c.11-4.15,2.81-6.17,4.83-6.17,2.13,0,4.26,1.68,4.15,4.94-.22,4.26-3.82,4.38-3.82,6.28-.22,2.13,3.14,4.94,8.53,4.94s9.09-3.14,9.65-8.08c.56-5.16-2.47-8.19-8.08-11.78-5.5-3.59-9.09-6.73-8.64-13.91.45-8.53,7.29-14.59,15.82-14.59,7.85.11,12.57,5.16,12.45,9.76-.22,3.37-2.13,5.83-4.71,5.83-2.24,0-4.26-1.57-4.04-4.6.11-3.37,2.58-4.38,2.69-5.95,0-1.91-3.03-3.14-6.62-3.14-4.49-.11-8.3,2.8-8.75,7.52-.34,4.38,1.91,6.73,7.52,10.32,6.62,4.15,9.99,7.97,9.31,15.59-1.01,9.65-8.75,14.7-16.83,14.7-8.53,0-13.58-5.83-13.46-11.67Z"/>
    <path class="cls-3" d="M153.22,683.05c0-2.24-1.35-3.14-4.15-3.14h-2.81l.45-1.57,16.49-1.01c0,4.49-.79,8.3-2.69,14.36l-1.46,4.49.34.11c5.39-12.12,9.87-19.41,15.6-19.41,3.59,0,5.95,3.03,5.95,7.18-.11,4.6-2.47,7.18-5.16,7.18s-4.49-2.13-4.38-5.27c0-2.02.9-3.25,1.01-3.82.11-.34,0-.79-.45-.79-4.15,0-12.23,15.26-15.71,28.5l-4.15,15.82h-9.87l10.55-39.49c.22-.79.45-2.24.45-3.14Z"/>
    <path class="cls-3" d="M181.38,708.3c.9-17.28,12.9-31.75,25.92-31.75,5.95,0,9.76,4.04,9.42,9.99-.45,10.66-12.45,15.71-24.91,18.62-.22,1.01-.45,3.48-.56,5.05-.34,8.19,1.91,12.68,6.4,12.68s9.2-3.59,13.58-10.77l1.35,1.12c-4.94,8.19-10.66,13.35-18.4,13.35s-13.35-6.96-12.79-18.29ZM208.87,685.3c.22-5.05-1.35-6.96-3.48-6.96-4.82,0-10.88,11.11-13.35,24.91,11.44-3.03,16.38-8.64,16.83-17.95Z"/>
    <path class="cls-3" d="M208.98,746.78h1.12c4.04,0,5.39-2.36,6.84-8.19l13.02-51.5c.34-1.35.56-2.92.56-4.04,0-2.24-1.35-3.14-4.26-3.14h-2.58l.45-1.68,16.38-1.01c.11,2.36-1.01,7.63-2.24,12.12l.22.11c3.37-7.18,7.85-12.34,13.58-12.34,4.82,0,10.21,4.71,10.21,15.6,0,19.63-12.12,33.66-21.65,33.66-6.28,0-8.86-5.83-8.42-10.43h-.22l-2.36,10.77-2.92,12.12c-1.35,5.83-1.12,7.97,3.03,7.97h2.58l-.45,1.8h-23.23l.34-1.8ZM252.51,688.33c.11-5.27-1.46-7.52-3.59-7.52-5.16,0-12.01,11.89-14.02,24.68-2.02,11.11-.67,17.95,4.26,17.95,6.73,0,13.01-19.52,13.35-35.12Z"/>
    <path class="cls-3" d="M278.88,683.05c0-2.24-1.35-3.14-4.15-3.14h-2.81l.45-1.57,16.49-1.01c0,4.49-.79,8.3-2.69,14.36l-1.46,4.49.34.11c5.39-12.12,9.87-19.41,15.6-19.41,3.59,0,5.95,3.03,5.95,7.18-.11,4.6-2.47,7.18-5.16,7.18s-4.49-2.13-4.38-5.27c0-2.02.9-3.25,1.01-3.82.11-.34,0-.79-.45-.79-4.15,0-12.23,15.26-15.71,28.5l-4.15,15.82h-9.87l10.55-39.49c.22-.79.45-2.24.45-3.14Z"/>
    <path class="cls-3" d="M307.04,708.3c.9-17.28,12.9-31.75,25.92-31.75,5.95,0,9.76,4.04,9.42,9.99-.45,10.66-12.45,15.71-24.91,18.62-.22,1.01-.45,3.48-.56,5.05-.34,8.19,1.91,12.68,6.4,12.68s9.2-3.59,13.58-10.77l1.35,1.12c-4.94,8.19-10.66,13.35-18.4,13.35s-13.35-6.96-12.79-18.29ZM334.52,685.3c.22-5.05-1.35-6.96-3.48-6.96-4.82,0-10.88,11.11-13.35,24.91,11.44-3.03,16.38-8.64,16.83-17.95Z"/>
    <path class="cls-3" d="M344.96,714.92c.11-4.15,2.8-6.17,4.82-6.17,2.13,0,4.26,1.68,4.15,4.94-.22,4.26-3.81,4.38-3.81,6.28-.22,2.13,3.14,4.94,8.53,4.94s9.09-3.14,9.65-8.08c.56-5.16-2.47-8.19-8.08-11.78-5.5-3.59-9.09-6.73-8.64-13.91.45-8.53,7.29-14.59,15.82-14.59,7.85.11,12.57,5.16,12.45,9.76-.22,3.37-2.13,5.83-4.71,5.83-2.24,0-4.26-1.57-4.04-4.6.11-3.37,2.58-4.38,2.69-5.95,0-1.91-3.03-3.14-6.62-3.14-4.49-.11-8.3,2.8-8.75,7.52-.34,4.38,1.91,6.73,7.52,10.32,6.62,4.15,9.99,7.97,9.31,15.59-1.01,9.65-8.75,14.7-16.83,14.7-8.53,0-13.58-5.83-13.46-11.67Z"/>
    <path class="cls-3" d="M384.9,708.3c.9-17.28,12.9-31.75,25.92-31.75,5.95,0,9.76,4.04,9.42,9.99-.45,10.66-12.45,15.71-24.91,18.62-.22,1.01-.45,3.48-.56,5.05-.34,8.19,1.91,12.68,6.4,12.68s9.2-3.59,13.58-10.77l1.35,1.12c-4.94,8.19-10.66,13.35-18.4,13.35s-13.35-6.96-12.79-18.29ZM412.38,685.3c.22-5.05-1.35-6.96-3.48-6.96-4.82,0-10.88,11.11-13.35,24.91,11.44-3.03,16.38-8.64,16.83-17.95Z"/>
    <path class="cls-3" d="M446.83,718.62c0-2.36.67-5.39,1.46-7.97l4.49-13.8c1.12-3.25,2.81-8.53,2.92-11.67,0-1.91-.67-3.14-2.36-3.14-5.05,0-13.35,16.04-16.04,26.7l-4.26,16.94h-9.99l10.43-39.04c.34-1.46.56-2.92.56-3.81,0-1.91-1.01-2.92-4.15-2.92h-2.81l.45-1.57,16.49-1.01c0,4.38-1.01,8.75-2.69,14.36l-1.23,4.04.34.11c4.94-11.22,10.32-18.62,17.28-18.62,4.82,0,7.52,3.48,7.52,8.98,0,3.37-1.68,8.41-2.47,10.77l-4.6,13.8c-.67,2.13-1.8,5.95-1.8,7.97s.56,2.8,1.91,2.8c2.02,0,4.94-3.14,8.19-10.43l1.35.9c-3.48,8.42-7.63,14.36-13.91,14.36-4.71,0-7.07-2.8-7.07-7.74Z"/>
    <path class="cls-3" d="M476.33,717.05c0-2.24.56-5.27,1.01-7.29l6.96-29.62h-6.4l.22-1.35c7.85-1.01,14.47-4.26,19.86-20.08h1.68l-4.94,19.52h11.44l-.34,1.91h-11.56l-7.52,30.74c-.22,1.46-.9,4.15-.9,5.83.11,3.14,1.23,5.16,3.81,5.16,3.48,0,6.51-3.82,10.43-11.89l1.46.67c-4.82,10.77-9.09,15.71-15.93,15.71-6.17,0-9.2-3.7-9.31-9.31Z"/>
    <path class="cls-3" d="M509.09,709.42c.45-17.73,12.23-32.43,22.89-32.43,6.17,0,8.08,5.95,8.75,11.44h.34c2.13-2.36,6.06-7.52,8.3-11.89l2.36.11c-.45,1.35-8.64,32.31-9.09,34.11-.79,3.03-1.35,5.83-1.35,7.4,0,1.91.45,2.92,1.8,2.92,1.79,0,4.71-3.03,7.97-10.32l1.46.9c-3.59,8.53-8.08,14.47-13.91,14.47-4.04,0-5.95-2.36-6.06-6.73,0-1.79.22-3.93.56-5.39h-.22c-2.69,6.51-6.96,12.34-12.9,12.34s-11.22-5.05-10.88-16.94ZM534.9,704.48c1.68-5.39,2.58-10.77,2.8-14.92.34-6.73-1.57-10.21-4.71-10.21-5.83,0-10.1,12.12-12.34,22.78-1.12,5.05-1.68,9.2-1.79,12.79-.11,4.71,1.12,7.85,3.93,7.85,4.49,0,9.2-8.3,12.12-18.29Z"/>
    <path class="cls-3" d="M558.9,710.77c0-18.18,12.34-34.22,25.24-34.22,7.74,0,9.99,5.61,9.76,11.78-.22,4.6-3.03,6.96-5.39,6.96-2.58,0-4.82-1.91-4.6-5.39.11-3.37,2.47-5.61,5.05-5.61,1.23,0,2.02.45,2.02-.9,0-2.36-1.91-4.6-5.39-4.6-9.99,0-16.72,18.62-16.72,31.53,0,7.74,1.91,12.23,7.07,12.23,4.26,0,8.19-3.37,12.23-10.32l1.35,1.01c-4.94,9.2-9.99,13.35-17.17,13.35s-13.46-5.5-13.46-15.82Z"/>
    <path class="cls-3" d="M599.4,719.18c0-3.14.56-5.61,1.23-7.97l6.62-24.8c.45-1.57.67-2.8.67-3.81,0-1.79-1.12-2.69-3.93-2.69h-3.14l.45-1.57,17.17-1.12c0,3.48-.56,7.18-2.58,14.36l-5.27,19.41c-.56,2.13-1.35,5.5-1.35,7.29,0,2.24.56,3.03,1.91,3.03,2.13,0,5.05-3.59,8.08-10.43l1.46.9c-3.7,9.09-8.64,14.58-14.58,14.58-4.71,0-6.73-3.59-6.73-7.18ZM608.83,660.84c0-3.37,3.03-6.4,6.51-6.4s6.39,3.03,6.39,6.4c0,3.59-2.92,6.51-6.39,6.51s-6.51-2.92-6.51-6.51Z"/>
    <path class="cls-3" d="M627.68,707.17c.34-17.28,12.57-30.63,24.12-30.63,8.08,0,14.14,7.07,14.02,19.07-.22,17.28-12.57,30.97-24.01,30.97-8.3,0-14.36-7.18-14.14-19.41ZM656.29,687.09c.11-6.17-1.35-8.86-4.15-8.86-8.3,0-15.04,26.48-15.15,38.15-.11,5.39,1.23,8.42,4.6,8.42,8.08,0,14.36-24.8,14.7-37.7Z"/>
    <path class="cls-3" d="M695.11,718.62c0-2.36.67-5.39,1.46-7.97l4.49-13.8c1.12-3.25,2.8-8.53,2.92-11.67,0-1.91-.67-3.14-2.36-3.14-5.05,0-13.35,16.04-16.04,26.7l-4.26,16.94h-9.99l10.43-39.04c.34-1.46.56-2.92.56-3.81,0-1.91-1.01-2.92-4.15-2.92h-2.8l.45-1.57,16.49-1.01c0,4.38-1.01,8.75-2.69,14.36l-1.23,4.04.34.11c4.94-11.22,10.32-18.62,17.28-18.62,4.83,0,7.52,3.48,7.52,8.98,0,3.37-1.68,8.41-2.47,10.77l-4.6,13.8c-.67,2.13-1.79,5.95-1.79,7.97s.56,2.8,1.91,2.8c2.02,0,4.94-3.14,8.19-10.43l1.35.9c-3.48,8.42-7.63,14.36-13.91,14.36-4.71,0-7.07-2.8-7.07-7.74Z"/>
    <path class="cls-3" d="M722.81,708.3c.9-17.28,12.9-31.75,25.92-31.75,5.95,0,9.76,4.04,9.42,9.99-.45,10.66-12.45,15.71-24.91,18.62-.22,1.01-.45,3.48-.56,5.05-.34,8.19,1.91,12.68,6.4,12.68s9.2-3.59,13.58-10.77l1.35,1.12c-4.94,8.19-10.66,13.35-18.4,13.35s-13.35-6.96-12.79-18.29ZM750.3,685.3c.22-5.05-1.35-6.96-3.48-6.96-4.82,0-10.88,11.11-13.35,24.91,11.44-3.03,16.38-8.64,16.83-17.95Z"/>
    <path class="cls-3" d="M760.73,714.92c.11-4.15,2.81-6.17,4.83-6.17,2.13,0,4.26,1.68,4.15,4.94-.22,4.26-3.82,4.38-3.82,6.28-.22,2.13,3.14,4.94,8.53,4.94s9.09-3.14,9.65-8.08c.56-5.16-2.47-8.19-8.08-11.78-5.5-3.59-9.09-6.73-8.64-13.91.45-8.53,7.29-14.59,15.82-14.59,7.85.11,12.57,5.16,12.45,9.76-.22,3.37-2.13,5.83-4.71,5.83-2.24,0-4.26-1.57-4.04-4.6.11-3.37,2.58-4.38,2.69-5.95,0-1.91-3.03-3.14-6.62-3.14-4.49-.11-8.3,2.8-8.75,7.52-.34,4.38,1.91,6.73,7.52,10.32,6.62,4.15,9.99,7.97,9.31,15.59-1.01,9.65-8.75,14.7-16.83,14.7-8.53,0-13.58-5.83-13.46-11.67Z"/>
  </g>
  <g>
    <g>
      <path class="cls-3" d="M393.19,195.84c-.1-1.1-3.93-2.91-4.86-3.32-1.65-.74-3.43-1.19-5.24-1.21-2.96-.03-5.96,1.1-7.91,3.38-5.2,6.1.86,14.21,6.88,16.87,9.73,4.3,22.3.48,31.82-2.78,6.96-2.38,14.4-5.47,20.07-10.29.73-.62,1.46-1.27,2.01-2.05-6.55,9.23-6.69,18.33-6.69,18.33-10.22,3.93-20.84,7.15-31.57,9.11-12.66,2.31-26.31,2.49-39.09-.17-29.51-6.13-21.52-39.83,13.93-41.42,8.28-.37,19.74,3.62,20.64,13.56Z"/>
      <path class="cls-2" d="M475.87,73.11c.32-.3.77-.82.99-1.57.1-.35.13-.93-.03-1.48-.05-.18-.23-.33-.42-.35-2.2-.15-4.66-.31-6.87-.48-2.35-4.27-7.76-7.12-9.68-8.13-1.64-.86-2.54-1.48-3.01-1.76-3.64-2.11-9.75.69-11.45,1.53-.17.08-.29.14-.34.17-2.55,1.32-5.99,3.93-9.33,9.58-.98-.25-2.65-.53-4.56-.05-5.28,1.32-7.08,7.05-7.17,7.37-1.25,4.21.07,9.28,3.91,12.19,4.36,3.31,9.49,1.93,10.08,1.76,1.01,1.45,2.81,3.59,5.67,5.27,5.67,3.33,11.42,2.44,13.14,2.11.3.22,2.41,1.87,2.56,4.82.15,2.95-1.79,4.82-2.06,5.07-4.37.18-7.94,0-10.38-.2-10.08-.81-17.81-3.25-24.38-5.32-1.71-.54-4.92-1.58-8.88-3.11-1.55-.6-4.72-1.82-8.48-3.56-4.84-2.24-8.16-4.17-9.58-4.97-7.07-3.96-14.06-6-28.04-10.08-4.27-1.25-10.17-2.87-17.31-4.51-3.89.23-8.68.85-14,2.31-6.04,1.66-10.99,3.92-14.78,6-.64.35-.73,1.24-.18,1.72h0c2.59,2.25,7.56-.82,17.06-2.25,3.38-.51,5.48-.53,6.42.7.6.79.8,2.17.2,3.31-.72,1.38-2.21,1.67-2.41,1.71-.71.4-2.66,1.61-3.16,3.81-.12.53-.34,1.49.15,2.01.79.82,2.92-.02,4.26-.6,2.19-.95,6.39-2.97,13.04-7.32,1.62-.02,3.34-.04,4.97-.05,2.07,1.3,5.06,3.16,8.68,5.37,10.64,6.49,16.53,10.08,23.43,13.59,8.24,4.2,14.73,6.67,20.17,8.73,15.51,5.89,26.18,9.28,26.18,9.28,3.96,1.26,7.49,2.31,11.94,4.92,1.51.88,4.86,2.96,10.58,8.43,3.71,3.54,8.61,8.69,13.74,15.65.47.92,1.1,2.36,1.5,4.21.32,1.46,1.3,5.99-.92,9.76-1.17,1.99-2.81,3.04-3.95,3.75-7.19,4.47-12.09,6.88-15.05,8.63-2.03,1.19-8.65,5.19-13.64,12.57-3.65,5.4-4.95,10.42-5.35,12.11-.85,3.58-1.01,6.69-.97,8.96,17.52-5.84,50.79-20.57,74.44-39.86,0,0-.39-8.97.41-18.03.37-4.24.98-8.17,1.71-11.74.83-1.62,1.89-4.08,2.51-7.22.45-2.29,1.12-5.72.1-9.43-1.63-5.94-6.64-9.15-8.33-10.13-.41-.17-3.11-1.31-4.11-4.31-1.24-3.7,1.27-6.76,1.4-6.92,2.28-2.79,5.18-6.6,8.23-11.34,4.01-6.25,9.8-16.51,14.05-30.2,3.36-10.83,4.79-20.67,5.32-28.69.03-.3.25-2.3,2.01-3.51,1.16-.8,2.36-.82,2.81-.8,1.86-.31,5.01-1.08,8.33-3.21,2.59-1.67,4.38-3.58,5.52-5.06.52-.67,1.15-3.81-2.01-1.76-2.15,1.4-6.85,2.92-7.72,1.79-1.01-1.32,3.36-6.23,4.51-7.51,3.42-3.83,6.87-6.33,9.23-7.83-.33-.64-.67-1.27-1-1.91-3.19.82-6.72,2.09-10.33,4.11-14.96,8.36-20.53,23.45-22.27,28.99-1.54,3.48-3.8,8.79-6.22,15.45-1.77,4.86-1.77,5.36-2.91,8.33-1.41,3.68-4.45,11.51-10.23,19.46-.7.96-4.71,5.56-12.74,14.75-1.78,2.03-3.24,3.71-4.21,4.82-.42.44-1.34,1.25-2.71,1.5-1.85.35-3.34-.54-4.11-1-3.17-1.9-6.18-6.69-4.61-11.24.86-2.51,2.78-3.96,3.81-4.61.45-.08,2.3-.45,3.41-2.11.33-.49,1.11-1.65.7-3.01-.51-1.69-2.4-2.18-2.51-2.21-.46-.53-1.03-1.33-1.3-2.41-.28-1.09-.07-1.68-.5-2.31-.32-.47-1.01-.95-2.61-1l-.33-1.44Z"/>
      <path class="cls-2" d="M511.07,262.75c-.52,2.94-1.73,8.45-2.82,12.92-.26,1.06-.5,1.96-.81,3.09-2.77,9.95-5.63,14.69-8.43,22.07-2.29,6.04-4.87,14.85-5.75,26.49.28,11.92.09,24.81-.8,38.52-.68,10.42-1.7,20.29-2.94,29.56-1.74,6.02-3.69,10.67-5.22,13.91-1.1,2.34-2.36,4.74-4.95,5.89-.17.07-3.37,1.44-4.95,0-.85-.77-.88-2.03-.8-3.61.24-5.3,1.31-8.21,1.87-12.57.34-2.68.54-4.24.27-6.42-.45-3.52-1.8-6.05-3.48-9.1-2.94-5.36-4.42-5.67-5.08-9.1-.23-1.19-.88-4.55.94-6.96.85-1.12,1.7-1.32,4.28-2.94,2.74-1.73,4.09-2.64,4.68-3.34,2.48-2.95.83-8.18.27-10.03,0,0-3.1-10.26-4.82-28.63-.57-6.12.12-14.95,6.15-26.22,3.05-3.49,6.26-7.01,9.63-10.57,7.46-7.85,12.37-10.37,22.76-22.96Z"/>
      <path class="cls-3" d="M523.58,223.6c44.31,2.64,4.97,39.15,4.97,39.15,0,0,38.85-25.06,28.01-38.57-3.41-4.6-8.94-5.58-14.47-5.05.23-.05,1.5.51,1.63.47,13.67-4.07,29.93.28,25.9,17.11,5.1-3.31,10.13-9.12,12.87-14.54,3.16-6.23,4.23-17.01-3.28-20.48-3.5-1.62-7.37-1.61-11.12-1.03-16.03,2.48-31.12,13.27-43.91,22.5-.2.15-.4.29-.6.44Z"/>
      <path class="cls-3" d="M511.63,237.22l.2-2.11c-.06.1-.12.2-.18.3l.06-5.43c-65.05,46.1-90.43,35.39-125.32,51.23-57.49,26.09-26.73,92.43-4.57,109.75-6.04-16.8-17.81-68.31,27.76-87.82-6.98,6.9-12.92,15.6-14.62,26.17-4.82,29.98,26.29,51.05,57.39,14.68-24.21,7.46-44.16-23.03,19.31-59.3,25-14.29,36.68-33.26,39.37-40.95l.31-3.3c.09-.19.18-.38.27-.57l.03-2.65Z"/>
      <path class="cls-1" d="M626.93,147.8c-4.66-3.21-10.22-5.11-15.84-6.03-11.55-1.88-23.63-.99-34.66,2.91-22.22,7.86-41.06,23.84-60.09,37.23-25.71,18.09-52.87,33.79-83.02,43.25-10.2,3.2-20.6,5.71-31.12,7.58-14.11,2.5-28.52,3.15-42.75,1.45-6.79-.81-13.56-2.15-18.2-4.35-14.23-6.85-17.37-20.73-7.05-31.48,1.26-1.33,2.23-2.28,2.23-2.56,0-.18-37.45,7.99-38.96,43.25-.46,10.87,5.4,23.79,14.92,28.84,6.78,3.59,15.14,4.52,22.65,5.19,12.69,1.13,25.53.66,38.19-.63,35.76-3.65,77.81-18.69,109.97-34.66,15.08-7.49,29.54-16.22,43.18-26.1,13.89-10.07,26.92-19.97,44.03-23.89,10.82-2.48,19.98.29,23.93,12.15,10.9,32.71-43.35,65.31-68.81,82.87-1.12.87-1.4,1.24-.76,1.07.64-.16,2.22-.88,4.47-1.99,28.33-14.06,58.81-26.38,82.31-48.19,14.02-13.02,25.14-29.95,28.01-48.87,1.84-12.11-.26-25.67-9.1-34.16-1.1-1.06-2.28-2.01-3.53-2.87Z"/>
    </g>
    <path class="cls-3" d="M424.56,149.01c2.52,1.78,6.97,4.93,9.48,6.71,3.19,2.26,2.09,5.87,2.09,5.87-2.29-2.52-5.91-5.81-10.39-6.28-.5-.05-.74.01-.71.62.06,1.21.02,2.43.01,3.65-.02,9.41-.04,18.81-.07,28.22-.01,4.2-2.6,7.15-6.77,7.84-2.17.36-5.74.16-7.74-.82-5.34-2.61-4.06-13.55,8.22-10.89.48.1.54-.04.54-.46-.02-2.55,0-5.1,0-7.65,0-8.71,0-17.41,0-26.12,0-1.87,3.19-2.23,5.35-.7Z"/>
    <path class="cls-1" d="M539.21,320.48c0-.4,0-.75,0-1.1,0-6.27,0-12.53,0-18.8,0-.47,0-.66-.62-.54-5.75,1.09-10.53,2.14-16.28,3.16-.54.09-.61.29-.61.75,0,7.96-.08,15.92-.01,23.87.02,3.06-2.34,5.05-5.01,6.23-2.35,1.04-4.72,1.04-7.03-.21-2.39-1.29-2.77-3.85-1.54-5.92,1.62-2.74,5.42-4.22,8.54-3.37.61.17.66,0,.66-.53-.01-9.65,0-19.3-.02-28.95,0-.52.08-.73.68-.82,5.56-.87,22.59-3.5,25.05-3.91.42-.07.56.03.56.49-.01,11.15,0,22.29-.02,33.44,0,2.74-1.47,4.56-3.91,5.63-2.31,1.02-5.65,1.19-7.95-.03-2.91-1.55-3.27-4.69-1.16-7.02,2.18-2.42,4.96-3.17,8.13-2.47.15.03.3.06.53.1Z"/>
  </g>
</svg>