<?xml version="1.0" encoding="UTF-8"?>
<svg id="Capa_1" xmlns="http://www.w3.org/2000/svg" viewBox="0 0 1215.1 408.55">
  <defs>
    <style>
      .cls-1 {
        fill: #d01d17;
      }

      .cls-2 {
        fill: #f9b500;
      }

      .cls-3 {
        fill: #2b5ba6;
      }
    </style>
  </defs>
  <g>
    <g>
      <path class="cls-3" d="M369.2,170.28h5.73c10.54,0,14.66-3.66,14.66-13.97V35.37c0-10.08-4.12-13.97-14.66-13.97h-5.73v-3.89h119.8l2.29,57.72h-3.67c-4.12-32.3-14.2-53.83-43.06-53.83h-14.66c-10.54,0-14.43,3.44-14.43,13.74v55.66h10.99c21.07,0,27.49-13.97,27.72-33.44h3.66v72.61h-3.66c-.23-19.47-6.41-35.05-27.72-35.05h-10.99v61.62c0,10.54,3.89,13.74,14.43,13.74h18.32c29.55,0,38.71-25.65,43.75-58.64h3.44l-3.89,62.53h-122.32v-3.89Z"/>
      <path class="cls-3" d="M518.08,170.28h5.73c10.54,0,14.66-2.75,14.66-13.74V35.14c0-10.99-4.12-13.74-14.66-13.74h-5.73v-3.89h65.97c35.96,0,58.18,14.66,58.18,42.83,0,30.01-26.11,45.35-61.62,45.35h-16.26v50.85c0,10.99,3.89,13.74,14.43,13.74h9.62v3.89h-70.32v-3.89ZM613.6,61.25c0-21.76-5.5-39.86-30.24-39.86h-4.58c-10.54,0-14.43,2.75-14.43,13.74v66.43h16.95c27.26,0,32.3-19.7,32.3-40.31Z"/>
      <path class="cls-3" d="M745.08,137.76c-4.12-31.61-10.08-37.11-29.32-37.11h-10.77v55.89c0,10.77,3.89,13.74,14.43,13.74h7.33v3.89h-68.03v-3.89h5.73c10.77,0,14.66-2.98,14.66-13.74V35.14c0-10.77-3.89-13.74-14.66-13.74h-5.73v-3.89h64.82c35.05,0,58.87,11.22,58.87,39.86,0,24.74-23.13,38.02-48.33,41.46v.46c14.2,4.35,24.28,15.35,31.61,31.61,8.93,19.7,13.51,29.09,20.84,29.09,5.04,0,8.48-3.66,8.7-19.01h3.66c.92,22.45-8.25,35.27-23.82,35.27-13.28,0-25.65-5.5-30.01-38.48ZM754.24,58.27c0-21.99-7.33-36.88-30.69-36.88h-4.12c-10.54,0-14.43,2.52-14.43,13.51v61.62h15.35c26.57,0,33.9-16.49,33.9-38.25Z"/>
      <path class="cls-3" d="M904.96,169.14c-7.33-3.21-11.45-6.18-15.57-6.18-3.67,0-7.56,3.44-9.85,13.28h-3.21l-1.6-60.93h3.66c7.79,41.23,36.88,57.26,59.78,57.26,18.32,0,30.01-11.68,30.01-28.63,0-18.78-12.83-26.8-39.4-34.59-30.92-8.93-52.68-18.78-52.68-49.93,0-26.57,19.01-44.21,44.44-44.21,12.14,0,23.13,4.12,31.84,9.85,2.98,1.83,5.96,3.44,8.93,3.44,3.66,0,6.87-2.98,9.62-13.28h3.21l1.6,60.93h-3.66c-8.48-41-29.32-57.03-51.77-57.03-17.64,0-29.09,11.68-29.09,27.03,0,16.26,6.18,25.2,39.4,34.59,35.5,10.08,52.45,22.22,52.45,50.62s-21.07,45.35-45.81,45.35c-14.66,0-24.97-4.35-32.3-7.56Z"/>
      <path class="cls-3" d="M1010.78,161.81c0-8.02,6.41-14.43,14.43-14.43s14.2,6.41,14.2,14.43-6.41,14.43-14.2,14.43-14.43-6.64-14.43-14.43Z"/>
      <path class="cls-3" d="M1083.16,146.46l50.85-132.85h6.87l53.6,140.41c4.58,11.91,9.62,15.58,20.61,16.26v3.89h-67.11v-3.89h6.64c8.7,0,12.6-4.12,12.83-8.7,0-4.12-.92-8.25-3.89-16.03l-8.7-23.59h-56.35l-5.96,15.8c-2.75,7.33-4.81,14.89-4.81,21.53s4.35,10.99,13.06,10.99h4.12v3.89h-44.21v-3.89c11.91-1.15,16.72-8.47,22.45-23.82ZM1153.25,117.6l-26.8-72.15-26.34,72.15h53.14Z"/>
    </g>
    <g>
      <path class="cls-3" d="M369.65,277.86h1.68c4.26,0,6.17-1.91,7.29-6.84l13.24-59.35c1.12-4.82-.11-6.96-4.26-6.96h-1.8l.45-1.79h46l-5.39,28.27h-1.91c2.24-16.61.9-26.37-11.33-26.37h-3.03c-4.26,0-6.28,1.79-7.4,6.73l-6.06,27.26h2.13c9.09,0,12.23-6.28,14.7-16.27h1.79l-7.97,35.57h-1.79c2.13-10.88,1.12-17.28-7.18-17.28h-2.13l-6.73,30.18c-1.12,4.94.22,6.73,4.38,6.73h3.93c12.45,0,19.07-12.57,24.35-28.72h2.02l-7.63,30.63h-47.8l.45-1.79Z"/>
      <path class="cls-3" d="M434.61,268.1c0-3.59,1.23-8.98,2.81-14.59l3.7-13.01c.45-1.57.67-2.8.67-3.7,0-2.13-1.12-2.92-3.93-2.92h-2.92l.45-1.57,16.72-.9c0,3.48-.9,8.42-2.58,14.25l-2.02,7.52c-1.46,5.39-3.37,11.11-3.48,15.6-.22,5.38,1.68,7.74,4.94,7.74,7.41.11,16.94-18.74,17.39-29.51.22-4.04-1.91-5.16-3.48-6.96-1.23-1.68-2.13-3.14-2.13-5.27,0-2.47,1.68-4.15,3.81-4.15,3.37,0,5.27,4.38,5.05,10.55-.67,17.73-12.23,39.38-24.57,39.38-6.73,0-10.55-4.15-10.43-12.45Z"/>
      <path class="cls-3" d="M476.23,262.26c.9-17.28,12.9-31.75,25.92-31.75,5.95,0,9.76,4.04,9.42,9.99-.45,10.66-12.45,15.71-24.91,18.62-.22,1.01-.45,3.48-.56,5.05-.34,8.19,1.91,12.68,6.4,12.68s9.2-3.59,13.58-10.77l1.35,1.12c-4.94,8.19-10.66,13.35-18.4,13.35s-13.35-6.96-12.79-18.29ZM503.72,239.26c.22-5.05-1.35-6.96-3.48-6.96-4.82,0-10.88,11.11-13.35,24.91,11.44-3.03,16.38-8.64,16.83-17.95Z"/>
      <path class="cls-3" d="M538.16,272.58c0-2.36.67-5.39,1.46-7.97l4.49-13.8c1.12-3.25,2.8-8.53,2.92-11.67,0-1.91-.67-3.14-2.36-3.14-5.05,0-13.35,16.04-16.04,26.7l-4.26,16.94h-9.99l10.43-39.04c.34-1.46.56-2.92.56-3.81,0-1.91-1.01-2.92-4.15-2.92h-2.8l.45-1.57,16.49-1.01c0,4.38-1.01,8.75-2.69,14.36l-1.23,4.04.34.11c4.94-11.22,10.32-18.62,17.28-18.62,4.83,0,7.52,3.48,7.52,8.98,0,3.37-1.68,8.41-2.47,10.77l-4.6,13.8c-.67,2.13-1.79,5.95-1.79,7.97s.56,2.8,1.91,2.8c2.02,0,4.94-3.14,8.19-10.43l1.35.9c-3.48,8.42-7.63,14.36-13.91,14.36-4.71,0-7.07-2.8-7.07-7.74Z"/>
      <path class="cls-3" d="M567.66,271.01c0-2.24.56-5.27,1.01-7.29l6.96-29.62h-6.4l.22-1.35c7.85-1.01,14.47-4.26,19.86-20.08h1.68l-4.94,19.52h11.44l-.34,1.91h-11.56l-7.52,30.74c-.22,1.46-.9,4.15-.9,5.83.11,3.14,1.23,5.16,3.81,5.16,3.48,0,6.51-3.82,10.43-11.89l1.46.67c-4.82,10.77-9.09,15.71-15.93,15.71-6.17,0-9.2-3.7-9.31-9.31Z"/>
      <path class="cls-3" d="M600.31,261.14c.34-17.28,12.57-30.63,24.12-30.63,8.08,0,14.14,7.07,14.02,19.07-.22,17.28-12.57,30.97-24.01,30.97-8.3,0-14.36-7.18-14.14-19.41ZM628.92,241.06c.11-6.17-1.35-8.86-4.15-8.86-8.3,0-15.04,26.48-15.15,38.15-.11,5.39,1.23,8.42,4.6,8.42,8.08,0,14.36-24.8,14.7-37.7Z"/>
      <path class="cls-3" d="M643.5,268.88c.11-4.15,2.81-6.17,4.83-6.17,2.13,0,4.26,1.68,4.15,4.94-.22,4.26-3.82,4.38-3.82,6.28-.22,2.13,3.14,4.94,8.53,4.94s9.09-3.14,9.65-8.08c.56-5.16-2.47-8.19-8.08-11.78-5.5-3.59-9.09-6.73-8.64-13.91.45-8.53,7.29-14.59,15.82-14.59,7.85.11,12.57,5.16,12.45,9.76-.22,3.37-2.13,5.83-4.71,5.83-2.24,0-4.26-1.57-4.04-4.6.11-3.37,2.58-4.38,2.69-5.95,0-1.91-3.03-3.14-6.62-3.14-4.49-.11-8.3,2.8-8.75,7.52-.34,4.38,1.91,6.73,7.52,10.32,6.62,4.15,9.99,7.97,9.31,15.59-1.01,9.65-8.75,14.7-16.83,14.7-8.53,0-13.58-5.83-13.46-11.67Z"/>
      <path class="cls-3" d="M693.88,300.75h1.12c4.04,0,5.39-2.36,6.84-8.19l13.01-51.5c.34-1.35.56-2.92.56-4.04,0-2.24-1.35-3.14-4.26-3.14h-2.58l.45-1.68,16.38-1.01c.11,2.36-1.01,7.63-2.24,12.12l.22.11c3.37-7.18,7.85-12.34,13.58-12.34,4.83,0,10.21,4.71,10.21,15.6,0,19.63-12.12,33.66-21.65,33.66-6.28,0-8.86-5.83-8.42-10.43h-.22l-2.36,10.77-2.92,12.12c-1.35,5.83-1.12,7.97,3.03,7.97h2.58l-.45,1.8h-23.22l.34-1.8ZM737.41,242.29c.11-5.27-1.46-7.52-3.59-7.52-5.16,0-12,11.89-14.02,24.68-2.02,11.11-.67,17.95,4.26,17.95,6.73,0,13.01-19.52,13.35-35.12Z"/>
      <path class="cls-3" d="M763.77,237.02c0-2.24-1.35-3.14-4.15-3.14h-2.8l.45-1.57,16.49-1.01c0,4.49-.79,8.3-2.69,14.36l-1.46,4.49.34.11c5.39-12.12,9.87-19.41,15.6-19.41,3.59,0,5.95,3.03,5.95,7.18-.11,4.6-2.47,7.18-5.16,7.18s-4.49-2.13-4.38-5.27c0-2.02.9-3.25,1.01-3.82.11-.34,0-.79-.45-.79-4.15,0-12.23,15.26-15.71,28.5l-4.15,15.82h-9.87l10.55-39.49c.22-.79.45-2.24.45-3.14Z"/>
      <path class="cls-3" d="M792.16,261.14c.34-17.28,12.57-30.63,24.12-30.63,8.08,0,14.14,7.07,14.02,19.07-.22,17.28-12.57,30.97-24.01,30.97-8.3,0-14.36-7.18-14.14-19.41ZM820.77,241.06c.11-6.17-1.35-8.86-4.15-8.86-8.3,0-15.04,26.48-15.15,38.15-.11,5.39,1.23,8.42,4.6,8.42,8.08,0,14.36-24.8,14.7-37.7Z"/>
      <path class="cls-3" d="M837.6,263.5c.45-18.29,12.45-32.54,22.66-32.54,6.51,0,7.85,5.95,7.85,12.9h.34c.45-3.14,1.79-10.77,2.47-13.35l5.05-19.75c.34-1.57.67-3.03.67-3.93-.11-1.91-1.35-2.36-4.04-2.36h-2.58l.45-1.68,17.5-1.91-16.72,63.95c-.67,2.81-1.46,5.72-1.46,7.41,0,1.91.56,2.8,1.91,2.8,1.79,0,4.71-3.03,7.97-10.32l1.46.9c-3.48,8.53-8.19,14.47-13.91,14.47-4.26,0-6.06-2.58-6.17-6.73,0-1.79.22-4.15.67-5.39h-.22c-2.8,6.73-7.18,12.34-13.01,12.34s-11.22-5.16-10.88-16.83ZM862.84,259.91c1.91-5.38,3.25-11,3.37-15.82.22-7.29-1.57-10.43-4.82-10.43-5.16,0-9.87,10.55-12.34,22.33-1.01,4.94-1.68,9.2-1.68,12.9,0,4.6,1.01,7.85,3.93,7.85,4.15,0,8.42-7.52,11.56-16.83Z"/>
      <path class="cls-3" d="M888.31,271.46c0-3.48,1.35-7.85,2.24-10.88l5.95-19.52c.56-1.8.79-3.37.79-4.26.11-2.02-1.23-2.92-4.04-2.92h-3.25l.56-1.57,17.28-1.01c.11,3.48-.45,7.18-2.58,14.14l-4.94,15.26c-.79,2.81-2.69,8.53-2.69,11.56,0,2.13.79,3.14,2.24,3.14,4.83,0,13.02-13.46,16.27-26.48l4.04-16.49h9.99l-8.53,31.64c-.67,2.47-1.57,6.06-1.57,7.97,0,2.02.56,3.03,1.91,3.03,1.79,0,4.71-3.14,7.97-10.1l1.46.79c-3.59,8.41-8.53,14.36-14.14,14.36-4.49,0-6.28-3.37-6.28-7.29,0-1.68.45-4.38,1.12-6.73l1.12-3.93-.34-.11c-5.39,12-10.88,18.29-17.28,18.29-4.83,0-7.29-3.48-7.29-8.86Z"/>
      <path class="cls-3" d="M937.89,264.73c0-18.18,12.34-34.22,25.25-34.22,7.74,0,9.99,5.61,9.76,11.78-.22,4.6-3.03,6.96-5.38,6.96-2.58,0-4.83-1.91-4.6-5.39.11-3.37,2.47-5.61,5.05-5.61,1.23,0,2.02.45,2.02-.9,0-2.36-1.91-4.6-5.39-4.6-9.99,0-16.72,18.62-16.72,31.53,0,7.74,1.91,12.23,7.07,12.23,4.26,0,8.19-3.37,12.23-10.32l1.35,1.01c-4.94,9.2-9.99,13.35-17.17,13.35s-13.46-5.5-13.46-15.82Z"/>
      <path class="cls-3" d="M978.4,273.14c0-3.14.56-5.61,1.23-7.97l6.62-24.8c.45-1.57.67-2.8.67-3.81,0-1.79-1.12-2.69-3.93-2.69h-3.14l.45-1.57,17.17-1.12c0,3.48-.56,7.18-2.58,14.36l-5.27,19.41c-.56,2.13-1.35,5.5-1.35,7.29,0,2.24.56,3.03,1.91,3.03,2.13,0,5.05-3.59,8.08-10.43l1.46.9c-3.7,9.09-8.64,14.58-14.58,14.58-4.71,0-6.73-3.59-6.73-7.18ZM987.82,214.8c0-3.37,3.03-6.4,6.51-6.4s6.39,3.03,6.39,6.4c0,3.59-2.92,6.51-6.39,6.51s-6.51-2.92-6.51-6.51Z"/>
      <path class="cls-3" d="M1006.67,261.14c.34-17.28,12.57-30.63,24.12-30.63,8.08,0,14.14,7.07,14.02,19.07-.22,17.28-12.57,30.97-24.01,30.97-8.3,0-14.36-7.18-14.14-19.41ZM1035.28,241.06c.11-6.17-1.35-8.86-4.15-8.86-8.3,0-15.04,26.48-15.15,38.15-.11,5.39,1.23,8.42,4.6,8.42,8.08,0,14.36-24.8,14.7-37.7Z"/>
      <path class="cls-3" d="M1074.1,272.58c0-2.36.67-5.39,1.46-7.97l4.49-13.8c1.12-3.25,2.8-8.53,2.92-11.67,0-1.91-.67-3.14-2.36-3.14-5.05,0-13.35,16.04-16.04,26.7l-4.26,16.94h-9.99l10.43-39.04c.34-1.46.56-2.92.56-3.81,0-1.91-1.01-2.92-4.15-2.92h-2.8l.45-1.57,16.49-1.01c0,4.38-1.01,8.75-2.69,14.36l-1.23,4.04.34.11c4.94-11.22,10.32-18.62,17.28-18.62,4.83,0,7.52,3.48,7.52,8.98,0,3.37-1.68,8.41-2.47,10.77l-4.6,13.8c-.67,2.13-1.79,5.95-1.79,7.97s.56,2.8,1.91,2.8c2.02,0,4.94-3.14,8.19-10.43l1.35.9c-3.48,8.42-7.63,14.36-13.91,14.36-4.71,0-7.07-2.8-7.07-7.74Z"/>
      <path class="cls-3" d="M1101.81,262.26c.9-17.28,12.9-31.75,25.92-31.75,5.95,0,9.76,4.04,9.42,9.99-.45,10.66-12.45,15.71-24.91,18.62-.22,1.01-.45,3.48-.56,5.05-.34,8.19,1.91,12.68,6.4,12.68s9.2-3.59,13.58-10.77l1.35,1.12c-4.94,8.19-10.66,13.35-18.4,13.35s-13.35-6.96-12.79-18.29ZM1129.29,239.26c.22-5.05-1.35-6.96-3.48-6.96-4.82,0-10.88,11.11-13.35,24.91,11.44-3.03,16.38-8.64,16.83-17.95Z"/>
      <path class="cls-3" d="M1139.73,268.88c.11-4.15,2.81-6.17,4.83-6.17,2.13,0,4.26,1.68,4.15,4.94-.22,4.26-3.82,4.38-3.82,6.28-.22,2.13,3.14,4.94,8.53,4.94s9.09-3.14,9.65-8.08c.56-5.16-2.47-8.19-8.08-11.78-5.5-3.59-9.09-6.73-8.64-13.91.45-8.53,7.29-14.59,15.82-14.59,7.85.11,12.57,5.16,12.45,9.76-.22,3.37-2.13,5.83-4.71,5.83-2.24,0-4.26-1.57-4.04-4.6.11-3.37,2.58-4.38,2.69-5.95,0-1.91-3.03-3.14-6.62-3.14-4.49-.11-8.3,2.8-8.75,7.52-.34,4.38,1.91,6.73,7.52,10.32,6.62,4.15,9.99,7.97,9.31,15.59-1.01,9.65-8.75,14.7-16.83,14.7-8.53,0-13.58-5.83-13.46-11.67Z"/>
      <path class="cls-3" d="M383.9,318.7c0-2.24-1.35-3.14-4.15-3.14h-2.8l.45-1.57,16.49-1.01c0,4.49-.79,8.3-2.69,14.36l-1.46,4.49.34.11c5.39-12.12,9.87-19.41,15.6-19.41,3.59,0,5.95,3.03,5.95,7.18-.11,4.6-2.47,7.18-5.16,7.18s-4.49-2.13-4.38-5.27c0-2.02.9-3.25,1.01-3.82.11-.34,0-.79-.45-.79-4.15,0-12.23,15.26-15.71,28.5l-4.15,15.82h-9.87l10.55-39.49c.22-.79.45-2.24.45-3.14Z"/>
      <path class="cls-3" d="M412.06,343.95c.9-17.28,12.9-31.75,25.92-31.75,5.95,0,9.76,4.04,9.42,9.99-.45,10.66-12.45,15.71-24.91,18.63-.22,1.01-.45,3.48-.56,5.05-.34,8.19,1.91,12.68,6.4,12.68s9.2-3.59,13.58-10.77l1.35,1.12c-4.94,8.19-10.66,13.35-18.4,13.35s-13.35-6.96-12.79-18.29ZM439.54,320.95c.22-5.05-1.35-6.96-3.48-6.96-4.82,0-10.88,11.11-13.35,24.91,11.44-3.03,16.38-8.64,16.83-17.95Z"/>
      <path class="cls-3" d="M439.65,382.43h1.12c4.04,0,5.39-2.36,6.84-8.19l13.01-51.5c.34-1.35.56-2.92.56-4.04,0-2.24-1.35-3.14-4.26-3.14h-2.58l.45-1.68,16.38-1.01c.11,2.36-1.01,7.63-2.24,12.12l.22.11c3.37-7.18,7.85-12.34,13.58-12.34,4.83,0,10.21,4.71,10.21,15.6,0,19.63-12.12,33.66-21.65,33.66-6.28,0-8.86-5.83-8.42-10.43h-.22l-2.36,10.77-2.92,12.12c-1.35,5.83-1.12,7.97,3.03,7.97h2.58l-.45,1.8h-23.22l.34-1.8ZM483.19,323.98c.11-5.27-1.46-7.52-3.59-7.52-5.16,0-12,11.89-14.02,24.68-2.02,11.11-.67,17.95,4.26,17.95,6.73,0,13.01-19.52,13.35-35.12Z"/>
      <path class="cls-3" d="M509.55,318.7c0-2.24-1.35-3.14-4.15-3.14h-2.8l.45-1.57,16.49-1.01c0,4.49-.79,8.3-2.69,14.36l-1.46,4.49.34.11c5.39-12.12,9.87-19.41,15.6-19.41,3.59,0,5.95,3.03,5.95,7.18-.11,4.6-2.47,7.18-5.16,7.18s-4.49-2.13-4.38-5.27c0-2.02.9-3.25,1.01-3.82.11-.34,0-.79-.45-.79-4.15,0-12.23,15.26-15.71,28.5l-4.15,15.82h-9.87l10.55-39.49c.22-.79.45-2.24.45-3.14Z"/>
      <path class="cls-3" d="M537.71,343.95c.9-17.28,12.9-31.75,25.92-31.75,5.95,0,9.76,4.04,9.42,9.99-.45,10.66-12.45,15.71-24.91,18.63-.22,1.01-.45,3.48-.56,5.05-.34,8.19,1.91,12.68,6.4,12.68s9.2-3.59,13.58-10.77l1.35,1.12c-4.94,8.19-10.66,13.35-18.4,13.35s-13.35-6.96-12.79-18.29ZM565.2,320.95c.22-5.05-1.35-6.96-3.48-6.96-4.82,0-10.88,11.11-13.35,24.91,11.44-3.03,16.38-8.64,16.83-17.95Z"/>
      <path class="cls-3" d="M575.63,350.57c.11-4.15,2.81-6.17,4.83-6.17,2.13,0,4.26,1.68,4.15,4.94-.22,4.26-3.82,4.38-3.82,6.28-.22,2.13,3.14,4.94,8.53,4.94s9.09-3.14,9.65-8.08c.56-5.16-2.47-8.19-8.08-11.78-5.5-3.59-9.09-6.73-8.64-13.91.45-8.53,7.29-14.59,15.82-14.59,7.85.11,12.57,5.16,12.45,9.76-.22,3.37-2.13,5.83-4.71,5.83-2.24,0-4.26-1.57-4.04-4.6.11-3.37,2.58-4.38,2.69-5.95,0-1.91-3.03-3.14-6.62-3.14-4.49-.11-8.3,2.8-8.75,7.52-.34,4.38,1.91,6.73,7.52,10.32,6.62,4.15,9.99,7.97,9.31,15.59-1.01,9.65-8.75,14.7-16.83,14.7-8.53,0-13.58-5.83-13.46-11.67Z"/>
      <path class="cls-3" d="M615.57,343.95c.9-17.28,12.9-31.75,25.92-31.75,5.95,0,9.76,4.04,9.42,9.99-.45,10.66-12.45,15.71-24.91,18.63-.22,1.01-.45,3.48-.56,5.05-.34,8.19,1.91,12.68,6.4,12.68s9.2-3.59,13.58-10.77l1.35,1.12c-4.94,8.19-10.66,13.35-18.4,13.35s-13.35-6.96-12.79-18.29ZM643.06,320.95c.22-5.05-1.35-6.96-3.48-6.96-4.82,0-10.88,11.11-13.35,24.91,11.44-3.03,16.38-8.64,16.83-17.95Z"/>
      <path class="cls-3" d="M677.5,354.27c0-2.36.67-5.39,1.46-7.97l4.49-13.8c1.12-3.25,2.8-8.53,2.92-11.67,0-1.91-.67-3.14-2.36-3.14-5.05,0-13.35,16.04-16.04,26.7l-4.26,16.94h-9.99l10.43-39.04c.34-1.46.56-2.92.56-3.81,0-1.91-1.01-2.92-4.15-2.92h-2.8l.45-1.57,16.49-1.01c0,4.38-1.01,8.75-2.69,14.36l-1.23,4.04.34.11c4.94-11.22,10.32-18.62,17.28-18.62,4.83,0,7.52,3.48,7.52,8.98,0,3.37-1.68,8.42-2.47,10.77l-4.6,13.8c-.67,2.13-1.79,5.95-1.79,7.97s.56,2.8,1.91,2.8c2.02,0,4.94-3.14,8.19-10.43l1.35.9c-3.48,8.42-7.63,14.36-13.91,14.36-4.71,0-7.07-2.8-7.07-7.74Z"/>
      <path class="cls-3" d="M707.01,352.7c0-2.24.56-5.27,1.01-7.29l6.96-29.62h-6.4l.22-1.35c7.85-1.01,14.47-4.26,19.86-20.08h1.68l-4.94,19.52h11.44l-.34,1.91h-11.56l-7.52,30.74c-.22,1.46-.9,4.15-.9,5.83.11,3.14,1.23,5.16,3.81,5.16,3.48,0,6.51-3.82,10.43-11.89l1.46.67c-4.82,10.77-9.09,15.71-15.93,15.71-6.17,0-9.2-3.7-9.31-9.31Z"/>
      <path class="cls-3" d="M739.77,345.07c.45-17.73,12.23-32.43,22.89-32.43,6.17,0,8.08,5.95,8.75,11.44h.34c2.13-2.36,6.06-7.52,8.3-11.89l2.36.11c-.45,1.35-8.64,32.31-9.09,34.11-.79,3.03-1.35,5.83-1.35,7.4,0,1.91.45,2.92,1.79,2.92,1.8,0,4.71-3.03,7.97-10.32l1.46.9c-3.59,8.53-8.08,14.47-13.91,14.47-4.04,0-5.95-2.36-6.06-6.73,0-1.79.22-3.93.56-5.39h-.22c-2.69,6.51-6.96,12.34-12.9,12.34s-11.22-5.05-10.88-16.94ZM765.57,340.13c1.68-5.39,2.58-10.77,2.81-14.92.34-6.73-1.57-10.21-4.71-10.21-5.83,0-10.1,12.12-12.34,22.78-1.12,5.05-1.68,9.2-1.79,12.79-.11,4.71,1.12,7.85,3.93,7.85,4.49,0,9.2-8.3,12.12-18.29Z"/>
      <path class="cls-3" d="M789.58,346.42c0-18.18,12.34-34.22,25.25-34.22,7.74,0,9.99,5.61,9.76,11.78-.22,4.6-3.03,6.96-5.38,6.96-2.58,0-4.83-1.91-4.6-5.39.11-3.37,2.47-5.61,5.05-5.61,1.23,0,2.02.45,2.02-.9,0-2.36-1.91-4.6-5.39-4.6-9.99,0-16.72,18.62-16.72,31.53,0,7.74,1.91,12.23,7.07,12.23,4.26,0,8.19-3.37,12.23-10.32l1.35,1.01c-4.94,9.2-9.99,13.35-17.17,13.35s-13.46-5.5-13.46-15.82Z"/>
      <path class="cls-3" d="M830.08,354.83c0-3.14.56-5.61,1.23-7.97l6.62-24.8c.45-1.57.67-2.8.67-3.81,0-1.79-1.12-2.69-3.93-2.69h-3.14l.45-1.57,17.17-1.12c0,3.48-.56,7.18-2.58,14.36l-5.27,19.41c-.56,2.13-1.35,5.5-1.35,7.29,0,2.24.56,3.03,1.91,3.03,2.13,0,5.05-3.59,8.08-10.43l1.46.9c-3.7,9.09-8.64,14.58-14.58,14.58-4.71,0-6.73-3.59-6.73-7.18ZM839.51,296.49c0-3.37,3.03-6.4,6.51-6.4s6.39,3.03,6.39,6.4c0,3.59-2.92,6.51-6.39,6.51s-6.51-2.92-6.51-6.51Z"/>
      <path class="cls-3" d="M858.35,342.83c.34-17.28,12.57-30.63,24.12-30.63,8.08,0,14.14,7.07,14.02,19.07-.22,17.28-12.57,30.97-24.01,30.97-8.3,0-14.36-7.18-14.14-19.41ZM886.96,322.74c.11-6.17-1.35-8.86-4.15-8.86-8.3,0-15.04,26.48-15.15,38.15-.11,5.39,1.23,8.42,4.6,8.42,8.08,0,14.36-24.8,14.7-37.7Z"/>
      <path class="cls-3" d="M925.78,354.27c0-2.36.67-5.39,1.46-7.97l4.49-13.8c1.12-3.25,2.8-8.53,2.92-11.67,0-1.91-.67-3.14-2.36-3.14-5.05,0-13.35,16.04-16.04,26.7l-4.26,16.94h-9.99l10.43-39.04c.34-1.46.56-2.92.56-3.81,0-1.91-1.01-2.92-4.15-2.92h-2.8l.45-1.57,16.49-1.01c0,4.38-1.01,8.75-2.69,14.36l-1.23,4.04.34.11c4.94-11.22,10.32-18.62,17.28-18.62,4.83,0,7.52,3.48,7.52,8.98,0,3.37-1.68,8.42-2.47,10.77l-4.6,13.8c-.67,2.13-1.79,5.95-1.79,7.97s.56,2.8,1.91,2.8c2.02,0,4.94-3.14,8.19-10.43l1.35.9c-3.48,8.42-7.63,14.36-13.91,14.36-4.71,0-7.07-2.8-7.07-7.74Z"/>
      <path class="cls-3" d="M953.49,343.95c.9-17.28,12.9-31.75,25.92-31.75,5.95,0,9.76,4.04,9.42,9.99-.45,10.66-12.45,15.71-24.91,18.63-.22,1.01-.45,3.48-.56,5.05-.34,8.19,1.91,12.68,6.4,12.68s9.2-3.59,13.58-10.77l1.35,1.12c-4.94,8.19-10.66,13.35-18.4,13.35s-13.35-6.96-12.79-18.29ZM980.98,320.95c.22-5.05-1.35-6.96-3.48-6.96-4.82,0-10.88,11.11-13.35,24.91,11.44-3.03,16.38-8.64,16.83-17.95Z"/>
      <path class="cls-3" d="M991.41,350.57c.11-4.15,2.81-6.17,4.83-6.17,2.13,0,4.26,1.68,4.15,4.94-.22,4.26-3.82,4.38-3.82,6.28-.22,2.13,3.14,4.94,8.53,4.94s9.09-3.14,9.65-8.08c.56-5.16-2.47-8.19-8.08-11.78-5.5-3.59-9.09-6.73-8.64-13.91.45-8.53,7.29-14.59,15.82-14.59,7.85.11,12.57,5.16,12.45,9.76-.22,3.37-2.13,5.83-4.71,5.83-2.24,0-4.26-1.57-4.04-4.6.11-3.37,2.58-4.38,2.69-5.95,0-1.91-3.03-3.14-6.62-3.14-4.49-.11-8.3,2.8-8.75,7.52-.34,4.38,1.91,6.73,7.52,10.32,6.62,4.15,9.99,7.97,9.31,15.59-1.01,9.65-8.75,14.7-16.83,14.7-8.53,0-13.58-5.83-13.46-11.67Z"/>
    </g>
  </g>
  <g>
    <g>
      <path class="cls-3" d="M109.42,184.95c-.09-1-3.56-2.64-4.4-3.01-1.49-.67-3.11-1.08-4.75-1.1-2.68-.03-5.4,1-7.17,3.07-4.71,5.53.78,12.87,6.23,15.28,8.81,3.89,20.2.43,28.82-2.52,6.3-2.16,13.05-4.96,18.19-9.33.66-.56,1.32-1.15,1.82-1.86-5.94,8.36-6.06,16.6-6.06,16.6-9.26,3.56-18.88,6.48-28.6,8.25-11.47,2.09-23.83,2.25-35.41-.15-26.73-5.56-19.49-36.08,12.62-37.52,7.5-.34,17.88,3.28,18.7,12.29Z"/>
      <path class="cls-2" d="M184.32,73.77c.29-.27.69-.74.89-1.42.09-.32.12-.84-.03-1.34-.05-.16-.21-.3-.38-.31-1.99-.13-4.22-.28-6.23-.43-2.13-3.87-7.03-6.45-8.77-7.36-1.49-.78-2.3-1.34-2.73-1.59-3.3-1.91-8.84.63-10.37,1.39-.15.08-.26.13-.31.15-2.31,1.19-5.43,3.56-8.45,8.68-.89-.23-2.4-.48-4.14-.05-4.78,1.19-6.41,6.38-6.5,6.68-1.13,3.81.07,8.41,3.54,11.04,3.95,3,8.59,1.75,9.13,1.59.92,1.31,2.55,3.25,5.13,4.77,5.13,3.01,10.35,2.21,11.91,1.91.27.2,2.18,1.7,2.32,4.36.14,2.68-1.62,4.36-1.86,4.59-3.96.16-7.19,0-9.41-.18-9.13-.74-16.13-2.94-22.08-4.82-1.55-.49-4.45-1.44-8.04-2.82-1.41-.54-4.27-1.65-7.68-3.23-4.38-2.03-7.4-3.78-8.68-4.5-6.4-3.59-12.74-5.43-25.4-9.13-3.87-1.13-9.21-2.6-15.68-4.09-3.53.21-7.86.77-12.68,2.09-5.47,1.5-9.96,3.55-13.39,5.43-.58.32-.66,1.12-.16,1.56h0c2.34,2.04,6.85-.74,15.45-2.04,3.06-.46,4.96-.48,5.82.64.54.71.72,1.96.18,3-.65,1.25-2,1.51-2.18,1.55-.64.36-2.41,1.46-2.86,3.45-.11.48-.31,1.35.14,1.82.71.74,2.64-.02,3.86-.55,1.99-.86,5.79-2.69,11.81-6.63l4.5-.05c1.87,1.17,4.58,2.86,7.87,4.86,9.64,5.88,14.98,9.13,21.22,12.31,7.47,3.81,13.35,6.04,18.27,7.91,14.05,5.33,23.72,8.41,23.72,8.41,3.58,1.14,6.78,2.09,10.82,4.45,1.37.8,4.4,2.68,9.59,7.63,3.36,3.21,7.8,7.88,12.45,14.18.42.83,1,2.14,1.36,3.82.29,1.32,1.18,5.43-.83,8.85-1.06,1.81-2.54,2.75-3.57,3.39-6.51,4.05-10.95,6.24-13.63,7.82-1.84,1.08-7.84,4.7-12.36,11.39-3.3,4.89-4.48,9.44-4.85,10.97-.77,3.24-.91,6.06-.88,8.12,15.87-5.29,46.01-18.63,67.43-36.11,0,0-.35-8.13.37-16.33.34-3.84.89-7.4,1.55-10.63.75-1.47,1.72-3.7,2.27-6.54.4-2.07,1.01-5.18.09-8.54-1.47-5.38-6.01-8.29-7.54-9.18-.37-.15-2.82-1.19-3.73-3.91-1.12-3.36,1.15-6.12,1.27-6.27,2.06-2.53,4.7-5.98,7.45-10.27,3.63-5.66,8.88-14.96,12.72-27.36,3.04-9.81,4.34-18.73,4.82-25.99.03-.27.22-2.09,1.82-3.18,1.05-.72,2.14-.74,2.54-.73,1.68-.28,4.54-.97,7.54-2.91,2.35-1.51,3.96-3.25,5-4.59.47-.61,1.04-3.46-1.82-1.59-1.95,1.27-6.21,2.65-6.99,1.63-.92-1.2,3.04-5.64,4.08-6.81,3.1-3.47,6.22-5.73,8.36-7.09-.3-.58-.61-1.15-.91-1.73-2.89.74-6.09,1.9-9.36,3.73-13.55,7.57-18.6,21.25-20.18,26.27-1.4,3.15-3.44,7.96-5.63,14-1.6,4.41-1.61,4.85-2.64,7.54-1.27,3.33-4.04,10.43-9.27,17.63-.63.87-4.27,5.03-11.54,13.36-1.61,1.84-2.94,3.36-3.82,4.36-.38.39-1.22,1.13-2.45,1.36-1.68.32-3.03-.49-3.73-.91-2.87-1.72-5.6-6.06-4.18-10.18.78-2.27,2.52-3.59,3.45-4.18.41-.07,2.08-.41,3.09-1.91.3-.45,1-1.5.64-2.73-.46-1.53-2.17-1.97-2.27-2-.42-.48-.93-1.2-1.18-2.18-.25-.99-.06-1.53-.45-2.09-.29-.42-.91-.86-2.36-.91l-.3-1.3Z"/>
      <path class="cls-2" d="M216.2,245.57c-.47,2.66-1.56,7.65-2.55,11.71-.23.96-.45,1.77-.73,2.8-2.51,9.02-5.1,13.31-7.63,19.99-2.08,5.47-4.41,13.45-5.21,23.99.25,10.8.08,22.47-.73,34.9-.62,9.44-1.54,18.38-2.67,26.78-1.58,5.45-3.34,9.67-4.73,12.6-1,2.12-2.14,4.3-4.48,5.33-.15.07-3.05,1.31-4.48,0-.77-.7-.79-1.84-.73-3.27.22-4.8,1.19-7.43,1.7-11.39.31-2.43.49-3.84.24-5.82-.4-3.19-1.63-5.48-3.15-8.24-2.66-4.85-4-5.13-4.6-8.24-.21-1.08-.8-4.13.85-6.3.77-1.02,1.54-1.2,3.88-2.67,2.49-1.56,3.7-2.39,4.24-3.03,2.25-2.67.75-7.41.24-9.09,0,0-2.81-9.3-4.36-25.93-.52-5.54.11-13.54,5.57-23.75,2.76-3.16,5.67-6.35,8.72-9.57,6.75-7.11,11.21-9.4,20.62-20.8Z"/>
      <path class="cls-3" d="M227.54,210.1c40.14,2.39,4.5,35.47,4.5,35.47,0,0,35.19-22.7,25.38-34.94-3.09-4.17-8.1-5.06-13.1-4.57.21-.05,1.36.46,1.48.43,12.39-3.69,27.12.25,23.46,15.5,4.62-2.99,9.17-8.26,11.66-13.18,2.86-5.64,3.83-15.41-2.97-18.55-3.17-1.47-6.68-1.46-10.08-.94-14.52,2.24-28.19,12.02-39.78,20.39-.18.13-.37.26-.55.4Z"/>
      <path class="cls-3" d="M216.71,222.44l.18-1.92c-.05.09-.11.18-.16.28l.05-4.92c-58.93,41.76-81.92,32.06-113.53,46.41-52.08,23.63-24.21,83.73-4.14,99.42-5.47-15.22-16.13-61.88,25.15-79.56-6.32,6.25-11.7,14.13-13.24,23.7-4.37,27.16,23.82,46.24,51.99,13.3-21.93,6.76-40.01-20.86,17.49-53.72,22.64-12.94,33.23-30.13,35.66-37.09l.28-2.99c.08-.17.17-.35.25-.51l.03-2.4Z"/>
      <path class="cls-1" d="M321.16,141.43c-4.22-2.91-9.26-4.63-14.35-5.46-10.46-1.71-21.41-.9-31.4,2.64-20.13,7.12-37.19,21.6-54.44,33.73-23.29,16.39-47.9,30.61-75.2,39.18-9.24,2.9-18.66,5.18-28.19,6.86-12.78,2.26-25.83,2.85-38.72,1.31-6.15-.73-12.28-1.95-16.49-3.94-12.89-6.2-15.73-18.78-6.39-28.52,1.14-1.2,2.02-2.07,2.02-2.32,0-.16-33.93,7.24-35.3,39.18-.42,9.85,4.89,21.55,13.52,26.13,6.14,3.25,13.71,4.09,20.52,4.7,11.5,1.03,23.13.6,34.59-.57,32.39-3.31,70.49-16.93,99.62-31.4,13.66-6.78,26.76-14.69,39.11-23.65,12.58-9.12,24.38-18.09,39.89-21.64,9.81-2.25,18.1.26,21.68,11.01,9.88,29.63-39.27,59.16-62.34,75.07-1.02.79-1.27,1.12-.69.97.58-.15,2.02-.79,4.05-1.8,25.66-12.73,53.28-23.9,74.56-43.66,12.7-11.79,22.77-27.13,25.38-44.27,1.67-10.97-.24-23.26-8.24-30.94-1-.96-2.07-1.82-3.2-2.6Z"/>
    </g>
    <path class="cls-3" d="M137.83,142.53c2.28,1.62,6.31,4.46,8.59,6.08,2.89,2.05,1.89,5.32,1.89,5.32-2.08-2.28-5.35-5.27-9.41-5.69-.46-.05-.67.01-.65.56.05,1.1.02,2.2.01,3.31-.02,8.52-.04,17.04-.07,25.57-.01,3.81-2.35,6.47-6.13,7.1-1.97.33-5.2.14-7.01-.74-4.83-2.36-3.68-12.27,7.45-9.87.44.09.49-.03.49-.42-.01-2.31,0-4.62,0-6.93,0-7.89,0-15.77,0-23.66,0-1.69,2.89-2.02,4.85-.63Z"/>
    <path class="cls-1" d="M241.7,297.86c0-.36,0-.68,0-1,0-5.68,0-11.35,0-17.03,0-.43,0-.6-.56-.49-5.21.98-9.54,1.94-14.75,2.86-.49.09-.55.26-.55.68,0,7.21-.07,14.42-.01,21.63.02,2.77-2.12,4.57-4.54,5.64-2.13.94-4.28.94-6.36-.19-2.16-1.17-2.51-3.48-1.4-5.36,1.47-2.48,4.91-3.82,7.74-3.05.55.15.6,0,.59-.48-.01-8.74,0-17.49-.02-26.23,0-.47.08-.66.62-.74,5.04-.79,20.46-3.17,22.69-3.54.38-.06.51.02.51.44-.01,10.1,0,20.19-.02,30.29,0,2.49-1.33,4.13-3.54,5.1-2.1.92-5.11,1.08-7.2-.03-2.64-1.4-2.96-4.25-1.05-6.36,1.97-2.19,4.49-2.87,7.37-2.23.14.03.27.05.48.09Z"/>
  </g>
</svg>