<?xml version="1.0" encoding="UTF-8"?>
<svg id="Capa_1" xmlns="http://www.w3.org/2000/svg" viewBox="0 0 512.57 442.49">
  <defs>
    <style>
      .cls-1 {
        fill: #fff;
      }
    </style>
  </defs>
  <path class="cls-1" d="M335.29,73.3h-158c-7.64,0-13.86,6.22-13.86,13.86v184.98c0,7.64,6.22,13.86,13.86,13.86h158c7.64,0,13.86-6.22,13.86-13.86V87.17c0-7.64-6.22-13.86-13.86-13.86ZM232.69,164.35v-8.33c0-12.41,10.53-22.5,23.47-22.5s23.47,10.09,23.47,22.5v8.33c0,12.41-10.53,22.5-23.47,22.5s-23.47-10.09-23.47-22.5ZM242.94,205.73l-.52,17.92c0,7.64,6.22,13.86,13.86,13.86s13.86-6.22,13.86-13.86l.52-17.92c16.57-2.14,51.14,27.04,58.21,58.41h-144.13c-.42-16.23,22.35-54.02,58.2-58.41ZM300.28,166.52v-6.03c0-24.26-19.73-43.99-43.99-43.99s-43.99,19.73-43.99,43.99v6.03c0,8.64,2.56,17.05,7.29,24.2-10.78,4.89-27.96,18.1-34.84,30.38v-123.31l143.73-.44.4,123.35c-8.03-16.28-25.1-25.09-35.88-29.98,4.73-7.16,7.29-15.57,7.29-24.2Z"/>
  <g>
    <path class="cls-1" d="M194.79,307.57h-18.47c-7.64,0-13.86,4.92-13.86,10.97s6.22,10.97,13.86,10.97h18.47c7.64,0,13.86-4.92,13.86-10.97s-6.22-10.97-13.86-10.97Z"/>
    <path class="cls-1" d="M336.25,307.57h-99.07c-7.64,0-13.86,4.92-13.86,10.97s6.22,10.97,13.86,10.97h99.07c7.64,0,13.86-4.92,13.86-10.97s-6.22-10.97-13.86-10.97Z"/>
    <path class="cls-1" d="M194.79,341.1h-18.47c-7.64,0-13.86,4.92-13.86,10.97s6.22,10.97,13.86,10.97h18.47c7.64,0,13.86-4.92,13.86-10.97s-6.22-10.97-13.86-10.97Z"/>
    <path class="cls-1" d="M336.25,341.1h-99.07c-7.64,0-13.86,4.92-13.86,10.97s6.22,10.97,13.86,10.97h99.07c7.64,0,13.86-4.92,13.86-10.97s-6.22-10.97-13.86-10.97Z"/>
  </g>
</svg>