<?xml version="1.0" encoding="UTF-8"?>
<svg id="Capa_1" xmlns="http://www.w3.org/2000/svg" viewBox="0 0 512.57 442.49">
  <defs>
    <style>
      .cls-1 {
        fill: #fff;
      }
    </style>
  </defs>
  <path class="cls-1" d="M256.29,71.65c-51.35,0-93.24,41.88-93.24,93.24,0,32.1,16.39,60.62,41.21,77.42-47.5,20.4-81.17,67.54-81.17,122.38h26.64c0-59,47.56-106.56,106.56-106.56s106.56,47.56,106.56,106.56h26.64c0-54.84-33.66-101.98-81.17-122.38,24.82-16.81,41.21-45.32,41.21-77.42,0-51.35-41.88-93.24-93.24-93.24ZM256.29,98.29c36.94,0,66.6,29.66,66.6,66.6s-29.66,66.6-66.6,66.6-66.6-29.66-66.6-66.6,29.66-66.6,66.6-66.6Z"/>
</svg>