<?xml version="1.0" encoding="UTF-8"?>
<svg id="Capa_1" xmlns="http://www.w3.org/2000/svg" viewBox="0 0 512.57 442.49">
  <defs>
    <style>
      .cls-1 {
        fill: #295ba7;
      }
    </style>
  </defs>
  <path class="cls-1" d="M446.04,281.42c4.37,0,7.91-3.54,7.91-7.91v-47.44c0-4.37-3.54-7.91-7.91-7.91-8.72,0-15.81-7.09-15.81-15.81,0-4.37-3.54-7.91-7.91-7.91h-30.78l30.02-60.11c.94-1.88,1.09-4.06.42-6.05-.67-2-2.11-3.64-4-4.57-3.76-1.85-6.57-5.08-7.92-9.09-1.35-4.02-1.06-8.3.83-12.06,1.94-3.88.32-8.68-3.54-10.61l-42.38-21.19c-1.88-.93-4.04-1.09-6.04-.43-1.99.66-3.63,2.09-4.57,3.96-4.04,8.08-12.17,13.1-21.23,13.1-3.75,0-7.32-.83-10.66-2.51-8.06-3.97-13.06-12.07-13.06-21.13,0-3.75.83-7.32,2.48-10.61.94-1.88,1.1-4.05.43-6.04-.66-1.99-2.09-3.64-3.97-4.57l-42.46-21.19c-3.91-1.96-8.66-.36-10.6,3.54-1.88,3.77-5.13,6.58-9.13,7.91-4.01,1.33-8.28,1.02-12.05-.86-3.68-1.84-8.66-.39-10.61,3.54l-28.54,57.16c-1.95,3.91-.37,8.66,3.54,10.6,3.91,1.95,8.66.36,10.6-3.54l25.46-50.98c11.2,2.37,22.92-1.52,30.44-10.15l29.92,14.93c-.89,3.31-1.33,6.74-1.33,10.25,0,15.13,8.39,28.66,21.84,35.29,5.51,2.76,11.47,4.16,17.69,4.16,12.38,0,23.74-5.64,31.14-15.12l29.83,14.91c-1.17,5.48-.86,11.2.98,16.66,1.83,5.44,5.02,10.18,9.24,13.82l-30.45,60.97h-212.02l33.12-66.44c1.95-3.91.36-8.66-3.55-10.6-3.91-1.95-8.66-.36-10.6,3.55l-36.64,73.5h-53.93c-4.37,0-7.91,3.54-7.91,7.91,0,8.72-7.09,15.81-15.81,15.81-4.37,0-7.91,3.54-7.91,7.91v47.44c0,4.37,3.54,7.91,7.91,7.91,13.08,0,23.72,10.64,23.72,23.72s-10.64,23.72-23.72,23.72c-4.37,0-7.91,3.54-7.91,7.91v47.44c0,4.37,3.54,7.91,7.91,7.91,8.72,0,15.81,7.09,15.81,15.81,0,4.37,3.54,7.91,7.91,7.91h260.91c4.37,0,7.91-3.54,7.91-7.91s-3.54-7.91-7.91-7.91h-55.34v-7.91c0-4.37-3.54-7.91-7.91-7.91s-7.91,3.54-7.91,7.91v7.91H97.16c-2.87-11.1-11.62-19.85-22.72-22.72v-33.42c18.02-3.67,31.63-19.65,31.63-38.74s-13.6-35.07-31.63-38.74v-33.42c11.1-2.87,19.85-11.62,22.72-22.72h182.85v7.91c0,4.37,3.54,7.91,7.91,7.91s7.91-3.54,7.91-7.91v-7.91h119.6c2.87,11.1,11.62,19.85,22.72,22.72v33.42c-18.02,3.67-31.63,19.65-31.63,38.74s13.6,35.07,31.63,38.74v33.42c-11.1,2.87-19.85,11.62-22.72,22.72h-32.63c-4.37,0-7.91,3.54-7.91,7.91s3.54,7.91,7.91,7.91h39.53c4.37,0,7.91-3.54,7.91-7.91,0-8.72,7.09-15.81,15.81-15.81,4.37,0,7.91-3.54,7.91-7.91v-47.44c0-4.37-3.54-7.91-7.91-7.91-13.08,0-23.72-10.64-23.72-23.72s10.64-23.72,23.72-23.72Z"/>
  <path class="cls-1" d="M295.82,249.79c0-4.37-3.54-7.91-7.91-7.91s-7.91,3.54-7.91,7.91v15.81c0,4.37,3.54,7.91,7.91,7.91s7.91-3.54,7.91-7.91v-15.81Z"/>
  <path class="cls-1" d="M295.82,297.23c0-4.37-3.54-7.91-7.91-7.91s-7.91,3.54-7.91,7.91v15.81c0,4.37,3.54,7.91,7.91,7.91s7.91-3.54,7.91-7.91v-15.81Z"/>
  <path class="cls-1" d="M287.91,336.76c-4.37,0-7.91,3.54-7.91,7.91v15.81c0,4.37,3.54,7.91,7.91,7.91s7.91-3.54,7.91-7.91v-15.81c0-4.37-3.54-7.91-7.91-7.91Z"/>
  <path class="cls-1" d="M319.54,313.05h63.25c4.37,0,7.91-3.54,7.91-7.91s-3.54-7.91-7.91-7.91h-63.25c-4.37,0-7.91,3.54-7.91,7.91s3.54,7.91,7.91,7.91Z"/>
  <path class="cls-1" d="M319.54,273.51h31.63c4.37,0,7.91-3.54,7.91-7.91s-3.54-7.91-7.91-7.91h-31.63c-4.37,0-7.91,3.54-7.91,7.91s3.54,7.91,7.91,7.91Z"/>
  <path class="cls-1" d="M319.54,352.58h31.63c4.37,0,7.91-3.54,7.91-7.91s-3.54-7.91-7.91-7.91h-31.63c-4.37,0-7.91,3.54-7.91,7.91s3.54,7.91,7.91,7.91Z"/>
  <path class="cls-1" d="M263.78,287.89c-1-2.96-3.64-5.06-6.76-5.35l-40.59-3.82-16.08-39.49c-1.21-2.98-4.11-4.93-7.32-4.93s-6.11,1.95-7.32,4.93l-16.08,39.49-40.59,3.82c-3.11.29-5.76,2.39-6.76,5.35-.99,2.96-.15,6.23,2.16,8.35l30.95,28.35-9.18,42.12c-.68,3.11.58,6.32,3.18,8.15,2.61,1.82,6.05,1.92,8.75.23l34.89-21.88s34.89,21.88,34.89,21.88c5.77,3.62,13.39-1.7,11.92-8.38l-9.18-42.12,30.95-28.35c2.3-2.11,3.15-5.38,2.16-8.35ZM216.64,316c-2.08,1.9-2.98,4.76-2.39,7.51l6.14,28.2-23.16-14.52c-1.29-.81-2.74-1.21-4.2-1.21s-2.91.4-4.2,1.21l-23.16,14.52,6.14-28.2c.6-2.75-.31-5.61-2.39-7.51l-21.16-19.38,27.62-2.6c2.93-.28,5.47-2.16,6.58-4.89l10.57-25.95,10.57,25.95c1.11,2.73,3.65,4.61,6.58,4.89l27.62,2.6-21.16,19.38Z"/>
</svg>