<?xml version="1.0" encoding="UTF-8"?>
<svg id="Capa_1" xmlns="http://www.w3.org/2000/svg" viewBox="0 0 512.57 442.49">
  <defs>
    <style>
      .cls-1 {
        fill: #fff;
      }
    </style>
  </defs>
  <path class="cls-1" d="M395.41,256.17V82.22c0-17.76-14.45-32.2-32.2-32.2h-21.3v-5.35c0-14.75-12-26.75-26.75-26.75s-26.75,12-26.75,26.75v5.35h-128.42v-5.35c0-14.75-12-26.75-26.75-26.75s-26.75,12-26.75,26.75v5.35h-21.3c-17.76,0-32.2,14.45-32.2,32.2v245.94c0,17.76,14.45,32.2,32.2,32.2h206.05c9.54,36.86,42.99,64.21,82.79,64.21,47.21,0,85.61-38.41,85.61-85.61,0-39.8-27.35-73.25-64.21-82.79ZM309.79,44.67c0-2.95,2.4-5.35,5.35-5.35s5.35,2.4,5.35,5.35v42.81c0,2.95-2.4,5.35-5.35,5.35s-5.35-2.4-5.35-5.35v-42.81ZM127.87,44.67c0-2.95,2.4-5.35,5.35-5.35s5.35,2.4,5.35,5.35v42.81c0,2.95-2.4,5.35-5.35,5.35s-5.35-2.4-5.35-5.35v-42.81ZM85.16,71.42h21.3v16.05c0,14.75,12,26.75,26.75,26.75s26.75-12,26.75-26.75v-16.05h128.42v16.05c0,14.75,12,26.75,26.75,26.75s26.75-12,26.75-26.75v-16.05h21.3c5.96,0,10.8,4.84,10.8,10.8v53.41H74.36v-53.41c0-5.96,4.84-10.8,10.8-10.8ZM85.16,338.96c-5.96,0-10.8-4.84-10.8-10.8v-171.12h299.64v96.31c-47.21,0-85.61,38.41-85.61,85.61H85.16ZM374,403.17c-35.41,0-64.21-28.8-64.21-64.21s28.8-64.21,64.21-64.21,64.21,28.8,64.21,64.21-28.8,64.21-64.21,64.21Z"/>
  <path class="cls-1" d="M159.97,178.44h-42.81c-5.91,0-10.7,4.79-10.7,10.7v42.81c0,5.91,4.79,10.7,10.7,10.7h42.81c5.91,0,10.7-4.79,10.7-10.7v-42.81c0-5.91-4.79-10.7-10.7-10.7ZM149.27,221.24h-21.4v-21.4h21.4v21.4Z"/>
  <path class="cls-1" d="M159.97,253.35h-42.81c-5.91,0-10.7,4.79-10.7,10.7v42.81c0,5.91,4.79,10.7,10.7,10.7h42.81c5.91,0,10.7-4.79,10.7-10.7v-42.81c0-5.91-4.79-10.7-10.7-10.7ZM149.27,296.16h-21.4v-21.4h21.4v21.4Z"/>
  <path class="cls-1" d="M245.59,178.44h-42.81c-5.91,0-10.7,4.79-10.7,10.7v42.81c0,5.91,4.79,10.7,10.7,10.7h42.81c5.91,0,10.7-4.79,10.7-10.7v-42.81c0-5.91-4.79-10.7-10.7-10.7ZM234.88,221.24h-21.4v-21.4h21.4v21.4Z"/>
  <path class="cls-1" d="M341.9,231.95v-42.81c0-5.91-4.79-10.7-10.7-10.7h-42.81c-5.91,0-10.7,4.79-10.7,10.7v42.81c0,5.91,4.79,10.7,10.7,10.7h42.81c5.91,0,10.7-4.79,10.7-10.7ZM320.5,221.24h-21.4v-21.4h21.4v21.4Z"/>
  <path class="cls-1" d="M245.59,253.35h-42.81c-5.91,0-10.7,4.79-10.7,10.7v42.81c0,5.91,4.79,10.7,10.7,10.7h42.81c5.91,0,10.7-4.79,10.7-10.7v-42.81c0-5.91-4.79-10.7-10.7-10.7ZM234.88,296.16h-21.4v-21.4h21.4v21.4Z"/>
  <path class="cls-1" d="M391.66,315.34l-24.54,24.53-10.77-10.77c-4.18-4.18-10.95-4.18-15.13,0-4.18,4.18-4.18,10.95,0,15.13l18.34,18.35c2.01,2.01,4.73,3.14,7.57,3.14s5.56-1.13,7.57-3.14l32.1-32.1c4.18-4.18,4.18-10.95,0-15.13s-10.95-4.18-15.13,0Z"/>
</svg>