<?xml version="1.0" encoding="UTF-8"?>
<svg id="Capa_1" xmlns="http://www.w3.org/2000/svg" viewBox="0 0 512.57 442.49">
  <defs>
    <style>
      .cls-1 {
        fill: #fff;
      }
    </style>
  </defs>
  <path class="cls-1" d="M256.29,50.83c-93.97,0-170.41,76.44-170.41,170.41s76.44,170.41,170.41,170.41,170.41-76.44,170.41-170.41S350.26,50.83,256.29,50.83ZM256.29,371.61c-82.92,0-150.36-67.45-150.36-150.36s67.45-150.36,150.36-150.36,150.36,67.45,150.36,150.36-67.45,150.36-150.36,150.36Z"/>
  <path class="cls-1" d="M146.02,211.22h-20.05c-5.54,0-10.02,4.49-10.02,10.02s4.48,10.02,10.02,10.02h20.05c5.54,0,10.02-4.49,10.02-10.02s-4.48-10.02-10.02-10.02Z"/>
  <path class="cls-1" d="M256.29,121c5.54,0,10.02-4.49,10.02-10.02v-20.05c0-5.54-4.48-10.02-10.02-10.02s-10.02,4.49-10.02,10.02v20.05c0,5.54,4.48,10.02,10.02,10.02Z"/>
  <path class="cls-1" d="M386.6,211.22h-20.05c-5.54,0-10.02,4.49-10.02,10.02s4.48,10.02,10.02,10.02h20.05c5.54,0,10.02-4.49,10.02-10.02s-4.48-10.02-10.02-10.02Z"/>
  <path class="cls-1" d="M256.29,321.49c-5.54,0-10.02,4.49-10.02,10.02v20.05c0,5.54,4.48,10.02,10.02,10.02s10.02-4.49,10.02-10.02v-20.05c0-5.54-4.48-10.02-10.02-10.02Z"/>
  <path class="cls-1" d="M308.42,135.03l-60.15,80.19c-3,3.99-2.59,9.57.93,13.1l50.12,50.12c1.96,1.96,4.52,2.94,7.09,2.94s5.13-.98,7.09-2.94c3.92-3.92,3.92-10.26,0-14.17l-43.97-43.97,54.93-73.24c3.33-4.43,2.43-10.71-2.01-14.03-4.42-3.33-10.71-2.42-14.03,2Z"/>
</svg>